<?xml version="1.0" encoding="UTF-8" standalone="no"?>
<!-- Created with Inkscape (http://www.inkscape.org/) -->

<svg
   xmlns:dc="http://purl.org/dc/elements/1.1/"
   xmlns:cc="http://creativecommons.org/ns#"
   xmlns:rdf="http://www.w3.org/1999/02/22-rdf-syntax-ns#"
   xmlns:svg="http://www.w3.org/2000/svg"
   xmlns="http://www.w3.org/2000/svg"
   xmlns:sodipodi="http://sodipodi.sourceforge.net/DTD/sodipodi-0.dtd"
   xmlns:inkscape="http://www.inkscape.org/namespaces/inkscape"
   version="1.1"
   id="svg1940"
   xml:space="preserve"
   width="189.59985"
   height="339.3696"
   viewBox="0 0 189.59985 339.3696"
   sodipodi:docname="dfp-logo.svg"
   inkscape:version="0.92.2 (5c3e80d, 2017-08-06)"><metadata
     id="metadata1946"><rdf:RDF><cc:Work
         rdf:about=""><dc:format>image/svg+xml</dc:format><dc:type
           rdf:resource="http://purl.org/dc/dcmitype/StillImage" /><dc:title></dc:title></cc:Work></rdf:RDF></metadata><defs
     id="defs1944" /><sodipodi:namedview
     pagecolor="#ffffff"
     bordercolor="#666666"
     borderopacity="1"
     objecttolerance="10"
     gridtolerance="10"
     guidetolerance="10"
     inkscape:pageopacity="0"
     inkscape:pageshadow="2"
     inkscape:window-width="1916"
     inkscape:window-height="1040"
     id="namedview1942"
     showgrid="false"
     inkscape:zoom="0.69540702"
     inkscape:cx="-153.25624"
     inkscape:cy="169.6848"
     inkscape:window-x="0"
     inkscape:window-y="18"
     inkscape:window-maximized="0"
     inkscape:current-layer="g1948" /><g
     id="g1948"
     inkscape:groupmode="layer"
     inkscape:label="dfp-logo"
     transform="matrix(1.3333333,0,0,-1.3333333,0,339.36961)"><g
       id="g1950"
       style="fill:#ffffff"><path
         d="m 70.465,0.758 c -5.102,2.457 -3.852,5.703 1.691,4.398 3.145,-0.742 6.629,1.352 6.785,4.078 0.032,0.606 0.11,1.524 0.172,2.039 0.325,2.707 -2.578,3.414 -6.941,1.692 -4.199,-1.66 -7.297,4.203 -5.692,10.758 0.911,3.726 10.743,6.667 14.676,4.39 2.586,-1.496 0.098,-3.762 -4.761,-4.34 C 71.25,23.164 69.68,19.656 74.422,19.379 81.988,18.937 83.59,17.586 84.531,10.859 85.473,4.117 76.645,-2.223 70.465,0.758 Z m 30.519,0.613 c -0.507,0.48 -0.961,1.902 -1.004,3.16 -0.128,3.82 -0.894,4.297 -6.187,3.859 -5.305,-0.433 -6.469,1.043 -4.637,5.883 0.418,1.106 0.891,2.825 1.051,3.825 1.258,7.824 4.418,12.41 6.609,9.589 1.204,-1.547 1.375,-3.019 0.43,-3.644 -1.324,-0.875 -2.332,-7.93 -1.297,-9.106 2.012,-2.281 4.469,-0.816 4.438,2.649 -0.02,1.91 2.664,4.929 3.968,4.472 1.133,-0.398 1.457,-1.574 1.301,-4.703 -0.043,-0.902 0.461,-2.613 1.125,-3.808 1.106,-1.996 1.09,-2.41 -0.179,-5.094 -0.762,-1.609 -1.368,-3.504 -1.348,-4.211 0.074,-2.582 -2.637,-4.406 -4.27,-2.871 z m 16.504,0.75 c -0.937,0.617 -1.715,1.566 -1.73,2.113 -0.016,0.551 -0.563,1.949 -1.211,3.114 -4.16,7.433 1.383,21.117 8.848,21.855 2.699,0.266 5.945,-1.867 6.003,-3.945 0.047,-1.586 -0.441,-1.754 -4.691,-1.618 -1.875,0.059 -3.359,-0.378 -4.277,-1.261 -2.219,-2.133 -1.672,-2.867 1.722,-2.313 5.582,0.914 8.164,-1.222 9.371,-7.765 1.43,-7.75 -7.679,-14.36 -14.035,-10.18 z m 8.242,5.992 c 2.368,3.598 0.86,7.363 -2.902,7.254 -3.695,-0.109 -4.875,-4.375 -2.289,-8.297 0.887,-1.347 4.035,-0.715 5.191,1.043 z M 56.223,2.105 c -0.938,0.977 -0.989,1.528 -0.278,3.071 1.707,3.703 6.274,2.359 5.403,-1.59 C 60.836,1.25 57.867,0.39 56.223,2.105 Z m -26.379,0.36 c -0.496,1.758 -0.41,6.324 0.344,18.254 0.531,8.375 14.984,11.504 21.46,4.652 C 54.004,22.879 53.672,17.269 50.957,13.64 48.797,10.75 48.207,7.683 49.652,6.848 50.93,6.109 50.707,2.004 49.387,1.965 47.988,1.922 45.258,4.508 43.637,7.41 40.395,13.199 34.336,10.711 33.84,3.387 33.633,0.316 30.645,-0.375 29.844,2.465 Z m 16.359,14.078 c 4.309,3.211 0.891,7.113 -6.047,6.91 -4.019,-0.117 -5.207,-1.273 -5.097,-4.961 0.054,-1.93 0.515,-2.172 5.332,-2.785 3.589,-0.457 4.187,-0.371 5.812,0.836 z M 0.641,0.988 C -0.324,1.355 -0.152,8.711 0.852,9.996 1.23,10.484 1.41,13.539 1.25,16.781 0.828,25.195 2.531,28.84 6.059,27.082 7.41,26.41 9.016,24.015 13.164,16.473 c 1.676,-3.043 4.918,-5.145 3.797,-2.461 -0.488,1.168 1.18,8.894 2.055,9.527 0.336,0.242 0.808,1.035 1.054,1.766 0.508,1.511 2.735,1.878 2.758,0.457 0.113,-6.52 -1.019,-22.809 -1.64,-23.606 -1.653,-2.113 -7.43,0.551 -7.512,3.465 -0.047,1.586 -3.16,7.211 -3.981,7.187 C 9.293,12.797 8.949,13.273 8.93,13.867 8.773,19.254 6.273,15.086 6.184,9.285 6.062,1.457 4.707,-0.57 0.641,0.988 Z M 61.492,51.004 C 50.48,53.547 34.543,61.73 34.449,64.89 c 0,0.102 -1.875,1.977 -4.164,4.168 -2.285,2.196 -4.887,5.317 -5.773,6.938 -0.891,1.625 -2.16,3.375 -2.824,3.894 -0.665,0.52 -1.227,1.579 -1.25,2.352 -0.024,0.777 -0.399,1.398 -0.836,1.387 -0.434,-0.012 -0.61,0.297 -0.383,0.687 0.226,0.391 0.062,0.91 -0.364,1.16 -0.425,0.247 -0.8,1.247 -0.828,2.223 -0.027,0.977 -0.574,2.27 -1.211,2.867 -0.636,0.602 -1.168,1.582 -1.187,2.18 -0.016,0.594 -0.93,2.965 -2.031,5.266 -1.098,2.3 -2.016,4.781 -2.036,5.511 -0.023,0.731 -0.355,1.641 -0.742,2.02 -0.597,0.586 -1.543,5.23 -2.086,10.219 -0.078,0.718 -0.355,1.304 -0.621,1.296 -1.285,-0.039 -2.765,13.856 -2.672,25.129 0.145,17.864 0.227,20.563 0.637,20.578 0.207,0.008 0.399,1.11 0.43,2.454 0.07,3.332 0.742,7.402 1.523,9.234 0.989,2.324 3.36,11.207 3.332,12.488 -0.011,0.625 0.614,2.41 1.387,3.965 0.777,1.555 1.688,4.109 2.027,5.676 0.723,3.359 3.442,11.609 4.188,12.707 1.39,2.043 4.976,9.734 4.953,10.617 -0.016,0.547 0.785,1.817 1.777,2.82 0.996,1 1.805,2.239 1.797,2.754 -0.008,0.516 0.297,0.95 0.676,0.961 0.375,0.008 1.371,1.203 2.211,2.653 1.496,2.586 6.305,8.097 7.086,8.121 0.215,0.008 1.683,1.246 3.258,2.758 1.578,1.507 3.679,3.144 4.675,3.632 0.997,0.489 1.801,1.172 1.793,1.52 -0.011,0.344 0.352,0.64 0.809,0.652 0.457,0.012 2.32,1.098 4.148,2.41 1.825,1.313 4.965,2.746 6.977,3.188 2.012,0.445 4.305,1.18 5.098,1.633 5.804,3.328 35.187,0.73 38.359,-3.391 0.215,-0.281 1.766,-1.332 3.445,-2.336 4.446,-2.664 9.946,-7.941 13.098,-12.566 1.512,-2.219 3.051,-4.028 3.422,-4.016 0.367,0.012 0.898,-0.562 1.176,-1.277 0.277,-0.715 1.715,-3.196 3.191,-5.512 1.481,-2.316 2.934,-4.977 3.231,-5.91 0.296,-0.93 1.074,-2.781 1.722,-4.113 0.649,-1.329 1.695,-4.508 2.332,-7.059 0.637,-2.555 1.735,-6.313 2.446,-8.355 0.707,-2.043 1.316,-4.461 1.347,-5.375 0.031,-0.915 0.578,-3.09 1.219,-4.84 0.914,-2.512 3.227,-25.965 2.969,-30.141 -0.028,-0.414 -0.153,-3.793 -0.285,-7.512 -0.325,-9.125 -2.02,-19.511 -5.043,-30.91 -0.114,-0.418 -0.422,-1.777 -0.688,-3.023 -0.934,-4.324 -4.437,-14.621 -5.496,-16.149 -0.383,-0.554 -1.68,-2.984 -2.879,-5.406 C 120.672,80.738 118.477,77.359 112.188,71.09 100.715,59.648 94.195,54.969 87.352,53.254 79.012,51.164 76.797,50.734 72.035,50.281 68.379,49.933 65.172,50.152 61.492,51.004 Z m 27.293,9.726 c 3.973,1.711 7.961,3.805 8.867,4.653 0.903,0.847 2.637,2.199 3.852,3.007 1.215,0.809 2.84,2.352 3.613,3.434 0.774,1.082 2.895,3.586 4.715,5.57 5.227,5.696 6.203,7.102 9.906,14.239 3.836,7.39 6.133,13.105 5.27,13.097 -0.309,-0.004 -0.219,0.25 0.191,0.567 2.723,2.086 8.613,24.832 9.735,37.601 1.101,12.52 -0.743,40.508 -3.207,48.676 -0.903,2.992 -1.332,4.945 -1.809,8.203 -1.106,7.586 -7.875,23.274 -9.844,22.809 -0.433,-0.102 -0.648,0.406 -0.484,1.129 0.168,0.722 -0.77,2.707 -2.082,4.41 -1.309,1.703 -2.391,3.422 -2.403,3.82 -0.035,1.153 -7.507,7.504 -11.199,9.52 -1.847,1.011 -3.972,2.355 -4.722,2.996 -1.926,1.64 -8.774,3.726 -15.012,4.578 -7.5,1.023 -24.473,-0.797 -25.656,-2.75 -0.254,-0.418 -1.621,-1.399 -3.043,-2.176 -6.586,-3.617 -17.871,-14.723 -21.989,-21.644 -1.5,-2.52 -3.054,-4.996 -3.461,-5.508 -1.171,-1.473 -7.031,-14.906 -7.226,-16.571 -0.098,-0.832 -0.735,-2.363 -1.418,-3.398 -0.68,-1.035 -1.227,-2.312 -1.211,-2.84 0.016,-0.523 -1.18,-5.129 -2.656,-10.226 -6.821,-23.575 -7.035,-57.028 -0.481,-74.633 0.664,-1.785 1.223,-3.703 1.239,-4.258 0.05,-1.742 2.589,-8.82 4.546,-12.684 1.032,-2.035 2.25,-4.628 2.707,-5.765 1.793,-4.446 11.84,-17.25 16.25,-20.703 2.692,-2.11 12.547,-6.75 14.227,-6.703 0.551,0.019 1.129,-0.313 1.281,-0.739 1.211,-3.304 22.039,-1.793 31.504,2.289 z m -33.105,9.5 c -0.832,0.184 -2.45,1.078 -3.594,1.989 -1.148,0.906 -2.387,1.757 -2.758,1.89 -7.058,2.512 -5.473,18.93 1.992,20.641 4.621,1.055 7.09,-3.57 4.203,-7.883 -2.527,-3.777 -1.574,-8.152 2.219,-10.191 4.68,-2.512 10.363,-0.391 10.563,3.945 0.043,0.887 0.863,2.859 1.824,4.387 1.746,2.773 2.785,12.851 2.219,21.547 -0.106,1.648 0.097,3.847 0.457,4.89 1.648,4.805 0.82,23.149 -1.098,24.324 -3.703,2.278 -10.082,0.5 -9.984,-2.777 0.035,-1.148 -4.047,-10.922 -4.793,-11.477 -0.313,-0.234 -1.317,-1.792 -2.231,-3.472 -6.578,-12.047 -16.719,-15.914 -27.906,-10.645 -9.527,4.489 -6.852,25.106 3.281,25.282 5.356,0.093 5.637,-2.098 1.508,-11.766 -2.953,-6.91 -0.691,-11.445 5.613,-11.262 3.676,0.11 8.168,4.789 10.121,10.547 0.684,2.016 1.883,5.074 2.664,6.793 0.782,1.719 1.524,4.106 1.653,5.301 0.129,1.195 0.363,3.351 0.523,4.793 0.282,2.539 -1.207,5.234 -2.867,5.183 -1.84,-0.05 -15.113,9.161 -15.16,10.524 -0.012,0.367 -1.238,1.914 -2.727,3.441 -1.488,1.528 -2.714,3.094 -2.726,3.485 -0.008,0.386 -0.356,0.695 -0.77,0.683 -0.41,-0.012 -0.773,0.571 -0.804,1.293 -0.028,0.719 -0.809,2.809 -1.735,4.637 -3.894,7.719 -2.847,15.133 2.301,16.254 3.391,0.742 4.5,-0.215 5.785,-4.988 3.043,-11.282 16.082,-13.415 15.785,-2.583 -0.027,0.883 0.489,1.833 1.145,2.102 0.726,0.305 0.992,0.961 0.687,1.699 -0.277,0.66 -0.148,1.653 0.289,2.207 0.434,0.559 0.844,3.235 0.918,5.953 0.071,2.719 0.621,6.012 1.231,7.321 0.605,1.312 1.078,3.179 1.047,4.156 -0.028,0.977 0.754,3.137 1.738,4.797 0.98,1.664 1.777,3.348 1.766,3.746 -0.121,4.137 16.121,13.367 22.511,12.793 4.907,-0.438 5.133,-2.172 0.481,-3.645 -7.34,-2.328 -8.625,-2.918 -10.629,-4.875 -3.555,-3.476 -6.625,-12.308 -8.059,-23.183 -0.379,-2.879 -1.109,-6.11 -1.621,-7.176 -0.512,-1.066 -1.347,-2.965 -1.855,-4.219 -3.184,-7.863 -5.891,-10.101 -13.149,-10.89 -8.25,-0.895 -9.398,-2.93 -4.441,-7.871 0.531,-0.532 0.973,-1.223 0.984,-1.54 0.02,-0.757 10.727,-11.007 11.469,-10.988 0.961,0.028 3.477,2.305 2.543,2.301 -0.504,0 -0.008,1.684 1.184,4 1.128,2.199 2.039,4.695 2.023,5.551 -0.043,2.109 1.812,8.398 3.477,11.781 0.75,1.523 1.351,3.176 1.335,3.676 -0.015,0.496 1.083,3.429 2.438,6.512 1.352,3.082 2.453,5.902 2.441,6.265 -0.011,0.363 0.778,2.27 1.754,4.238 0.973,1.969 1.758,3.926 1.746,4.348 -0.031,1.164 5.715,6.774 8.692,8.481 7.824,4.492 18.859,-1.165 19.109,-9.801 0.196,-6.668 -9.183,-5.91 -10.887,0.879 -2.105,8.406 -7.199,6.886 -12.242,-3.645 -4.316,-9.015 -4.468,-11.519 -0.726,-12.051 1.605,-0.226 4.593,-0.839 6.644,-1.355 4.922,-1.246 6.465,-1.121 8.66,0.699 3.914,3.254 6.344,0.551 2.907,-3.23 -6.043,-6.653 -11.477,-8.274 -16.922,-5.055 -4.336,2.562 -6.938,1.461 -6.055,-2.563 0.106,-0.48 -0.144,-1.097 -0.562,-1.371 -0.414,-0.273 -0.727,-1.453 -0.692,-2.617 0.031,-1.168 -0.414,-3.101 -0.996,-4.301 -0.582,-1.199 -1.039,-2.918 -1.016,-3.82 0.028,-0.906 -0.25,-1.84 -0.613,-2.078 -0.363,-0.238 -0.812,-1.707 -1,-3.262 -0.191,-1.558 -0.523,-4.058 -0.738,-5.562 -0.461,-3.18 1.57,-5.11 5.266,-5.004 3.628,0.105 7.117,5.555 6.98,10.898 -0.02,0.719 0.219,1.321 0.527,1.328 0.309,0.012 1.11,1.473 1.782,3.25 2.914,7.727 11.699,14.403 19.25,14.621 4.304,0.125 6.054,1.231 6.648,4.188 2.137,10.695 2.359,13.102 2.102,22.758 -0.207,7.707 -0.594,11.152 -1.422,12.722 -0.625,1.188 -1.633,3.579 -2.235,5.313 -0.601,1.738 -1.351,3.148 -1.66,3.141 -0.308,-0.008 -1.34,1.476 -2.289,3.3 -9.277,17.817 -45.469,17.223 -49.453,-0.808 -1.23,-5.571 -0.75,-9.563 1.422,-11.77 2.672,-2.719 2.504,-4.359 -0.602,-5.953 -15.457,-7.933 -16.468,16.891 -1.148,28.18 8.945,6.594 25.672,11.441 27.887,8.082 0.214,-0.324 1.824,-0.762 3.586,-0.977 4.167,-0.504 11.742,-2.945 14.312,-4.609 1.117,-0.723 2.305,-1.305 2.637,-1.297 1.953,0.059 14.078,-12.473 15.535,-16.051 0.75,-1.836 1.801,-4 2.336,-4.808 1.976,-2.989 4.258,-28.61 2.812,-31.582 -0.367,-0.754 -1.187,-3.411 -1.828,-5.907 -0.637,-2.496 -1.437,-5.129 -1.777,-5.855 -0.34,-0.727 -0.602,-1.75 -0.582,-2.27 0.043,-1.097 5.824,-7.156 6.801,-7.125 0.711,0.02 2.156,-2.48 3.847,-6.64 2.567,-6.332 0.446,-22.871 -3.765,-29.34 -6.696,-10.285 -16.7,-16.293 -28.801,-17.301 -9.461,-0.785 -10.328,-1.289 -11.059,-6.41 C 81.449,84.082 65.234,68.109 55.68,70.23 Z m 43.906,38.094 c 2.898,1.227 9.898,7.875 9.855,9.359 -0.011,0.415 0.559,1.207 1.274,1.77 1.527,1.199 3.039,4.641 2.976,6.773 -0.023,0.829 0.301,1.309 0.719,1.067 0.442,-0.254 0.778,0.535 0.793,1.855 0.027,2.637 -0.066,2.125 1.473,7.778 3.64,13.355 -3.262,26.64 -8.309,15.992 -2.664,-5.621 -7.933,-9.93 -18.055,-14.77 -6.269,-2.996 -6.339,-3.254 -5.484,-19.679 0.68,-13.067 3.41,-14.946 14.758,-10.145 z m -6.375,36.184 c 1.84,1.816 3.332,3.715 3.316,4.222 -0.015,0.508 0.27,0.934 0.633,0.942 2.137,0.062 6.418,12.929 4.738,14.238 -2.347,1.832 -11.003,-2.191 -10.918,-5.078 0.016,-0.496 -0.445,-1.317 -1.023,-1.828 -0.578,-0.508 -1.25,-2.004 -1.492,-3.324 -0.242,-1.317 -0.715,-2.766 -1.055,-3.215 -4.765,-6.317 0.235,-11.453 5.801,-5.957 z"
         style="fill:#ffffff;fill-opacity:1;fill-rule:nonzero;stroke:none"
         id="path1952"
         inkscape:connector-curvature="0" /></g></g></svg>