<?xml version="1.0" encoding="UTF-8" standalone="no"?>
<!-- Created with Inkscape (http://www.inkscape.org/) -->

<svg
   xmlns:dc="http://purl.org/dc/elements/1.1/"
   xmlns:cc="http://creativecommons.org/ns#"
   xmlns:rdf="http://www.w3.org/1999/02/22-rdf-syntax-ns#"
   xmlns:svg="http://www.w3.org/2000/svg"
   xmlns="http://www.w3.org/2000/svg"
   xmlns:sodipodi="http://sodipodi.sourceforge.net/DTD/sodipodi-0.dtd"
   xmlns:inkscape="http://www.inkscape.org/namespaces/inkscape"
   version="1.1"
   id="svg882"
   width="1332.2708"
   height="783.06812"
   viewBox="0 0 1332.2707 783.06812"
   sodipodi:docname="title.svg"
   inkscape:version="0.92.2 (5c3e80d, 2017-08-06)">
  <metadata
     id="metadata888">
    <rdf:RDF>
      <cc:Work
         rdf:about="">
        <dc:format>image/svg+xml</dc:format>
        <dc:type
           rdf:resource="http://purl.org/dc/dcmitype/StillImage" />
        <dc:title></dc:title>
      </cc:Work>
    </rdf:RDF>
  </metadata>
  <defs
     id="defs886" />
  <sodipodi:namedview
     pagecolor="#ffffff"
     bordercolor="#666666"
     borderopacity="1"
     objecttolerance="10"
     gridtolerance="10"
     guidetolerance="10"
     inkscape:pageopacity="0"
     inkscape:pageshadow="2"
     inkscape:window-width="956"
     inkscape:window-height="1040"
     id="namedview884"
     showgrid="false"
     fit-margin-top="0"
     fit-margin-left="0"
     fit-margin-right="0"
     fit-margin-bottom="0"
     inkscape:zoom="0.63"
     inkscape:cx="659.73687"
     inkscape:cy="478.28205"
     inkscape:window-x="0"
     inkscape:window-y="18"
     inkscape:window-maximized="0"
     inkscape:current-layer="svg882" />
  <path
     style="fill:#ffffff"
     d="m 1141.2878,736.21801 c -17.4122,-3.22196 -33.3838,-25.44586 -28.4235,-39.55015 1.5658,-4.45237 -0.3487,-5.10501 -5.0318,-1.71563 -2.2304,1.6141 -4.0258,3.50842 -3.9899,4.20961 0.036,0.70119 -0.3781,1.29761 -0.9201,1.32538 -1.4987,0.0768 -8.642,5.81136 -8.6601,6.95224 -0.019,1.19789 -10.649,9.95139 -14.8548,12.23234 -1.6329,0.88562 -3.2986,2.21009 -3.7015,2.94326 -0.4028,0.73317 -1.3291,1.36361 -2.0585,1.40098 -0.7294,0.0374 -1.8045,0.70836 -2.3891,1.49108 -0.5846,0.78272 -3.4626,2.31521 -6.3954,3.40555 -2.9329,1.09033 -5.8315,2.65061 -6.4415,3.46728 -0.61,0.81668 -1.9048,1.52564 -2.8774,1.57547 -0.9725,0.0498 -2.0094,0.8303 -2.3041,1.73438 -0.3812,1.1686 -1.3343,1.52961 -3.2975,1.24881 -1.5188,-0.21722 -8.0639,0.56392 -14.5448,1.73589 -6.709,1.21322 -12.0709,1.76378 -12.4509,1.27847 -0.3671,-0.46881 -2.6999,-2.16973 -5.184,-3.77983 -2.484,-1.6101 -5.1259,-3.93862 -5.8708,-5.17451 -5.7008,-9.45879 -6.2644,-10.70238 -5.8358,-12.87606 0.2552,-1.29357 0,-3.70799 -0.57,-5.36539 -1.1823,-3.44596 -0.1174,-12.27813 1.4902,-12.3605 0.5688,-0.0292 0.7428,-0.97269 0.3864,-2.09673 -0.4024,-1.26941 0.044,-2.80977 1.1769,-4.06555 1.0036,-1.112 1.7996,-2.51269 1.7689,-3.11265 -0.031,-0.59996 0.7843,-2.27956 1.8113,-3.73244 1.027,-1.45287 1.8334,-3.30258 1.7921,-4.11045 -0.041,-0.80787 0.9798,-2.86166 2.2694,-4.56398 1.2896,-1.70231 2.304,-3.8898 2.2542,-4.86109 -0.05,-0.97128 0.7824,-2.6412 1.8492,-3.71094 1.0669,-1.06975 2.8099,-4.1307 3.8736,-6.80214 1.0637,-2.67143 2.6776,-5.09288 3.5866,-5.38101 0.9089,-0.28813 1.881,-1.8953 2.1602,-3.57151 0.2791,-1.67619 1.3757,-3.91822 2.4368,-4.98229 1.0613,-1.06406 2.45,-3.32224 3.0862,-5.01818 0.6361,-1.69593 2.3678,-4.54984 3.8479,-6.342 4.0606,-4.91638 5.2228,-7.10578 7.6418,-14.39506 0.5748,-1.73221 1.4036,-2.4792 2.3928,-2.15664 0.9874,0.32195 1.4819,-0.12039 1.4228,-1.27282 -0.05,-0.97146 0.3182,-2.21907 0.8176,-2.77245 0.4995,-0.55338 0.5333,-1.54835 0.075,-2.21106 -1.0722,-1.55131 -12.2109,1.0545 -13.3046,3.11251 -0.4016,0.75581 -1.8092,1.42949 -3.1278,1.49705 -1.3185,0.0676 -2.7241,0.78123 -3.1232,1.58592 -0.3992,0.80468 -3.1323,3.08502 -6.0735,5.06741 -6.996,4.71534 -10.4262,7.75677 -10.7053,9.49191 -0.1244,0.77367 -1.921,2.31913 -3.9924,3.43435 -2.0714,1.11523 -3.9474,2.90129 -4.169,3.96905 -0.2215,1.06776 -0.9764,1.97077 -1.6775,2.00669 -0.7011,0.0359 -1.4988,0.75268 -1.7728,1.5928 -0.274,0.84012 -1.1864,1.56275 -2.0275,1.60585 -0.8411,0.0431 -1.4954,0.74093 -1.4539,1.55075 0.042,0.80982 -1.23707,2.23866 -2.84127,3.17523 -1.6041,0.93656 -2.8821,2.47802 -2.8399,3.42548 0.046,1.03405 -1.5579,2.60694 -4.0125,3.9348 -5.2351,2.83193 -9.4471,6.74563 -9.3477,8.68558 0.045,0.87647 -0.5134,1.32339 -1.3233,1.05929 -0.8645,-0.28193 -1.3203,0.17549 -1.1904,1.1948 0.1158,0.90839 -0.7777,2.15185 -1.9855,2.76326 -1.2078,0.61141 -2.1647,1.72127 -2.1266,2.46637 0.038,0.74509 -0.8513,1.64659 -1.9768,2.00334 -1.1254,0.35675 -2.4099,1.77575 -2.8544,3.15334 -0.4445,1.37759 -1.6968,2.78638 -2.7828,3.13065 -1.08602,0.34426 -1.8274,1.15897 -1.64747,1.81047 0.33316,1.2064 -4.74146,7.81144 -6.05313,7.87865 -0.396,0.0203 -3.38062,2.87676 -6.63248,6.3477 -3.25185,3.47095 -6.27408,6.32934 -6.71606,6.35199 -0.44198,0.0226 -0.76928,0.71115 -0.72732,1.53003 0.042,0.81886 -1.43907,2.58446 -3.29117,3.92355 -2.2923,1.65735 -3.33223,3.1992 -3.25715,4.82919 0.0605,1.31698 -1.29706,4.31538 -3.01715,6.66312 -1.72009,2.34773 -3.37217,5.5387 -3.67128,7.09104 -0.33445,1.73575 -0.99138,2.57654 -1.70624,2.1838 -0.78112,-0.42914 -0.94148,0.0583 -0.4889,1.48606 0.46061,1.45308 0.21675,2.1481 -0.77147,2.19873 -0.79474,0.0407 -2.69315,1.09965 -4.21869,2.35318 -2.34706,1.92857 -3.59654,2.22013 -8.12316,1.89545 -2.94219,-0.21102 -10.50639,-0.34547 -16.80932,-0.29876 -17.72131,0.13131 -21.55959,-2.98103 -15.30407,-12.40963 8.32908,-12.55394 9.45173,-14.19948 10.42376,-15.27862 0.5699,-0.63271 2.14711,-3.12761 3.50491,-5.54421 1.3578,-2.41662 3.32032,-5.33742 4.36115,-6.49065 1.04083,-1.15326 2.09089,-3.44468 2.33347,-5.09206 0.24258,-1.64738 0.82275,-3.0148 1.28927,-3.0387 0.46652,-0.0239 1.52208,-1.54241 2.34569,-3.37445 1.57826,-3.51066 4.09338,-7.23923 9.89755,-14.67272 1.93803,-2.48207 3.4996,-4.98316 3.47014,-5.55797 -0.0294,-0.57483 1.8416,-3.6314 4.15788,-6.79239 2.31629,-3.16099 4.17816,-6.39665 4.13749,-7.19036 -0.0407,-0.79371 0.57151,-2.03711 1.36039,-2.76312 0.78889,-0.72601 1.39421,-2.1032 1.34516,-3.06043 -0.049,-0.95723 0.7511,-2.92913 1.77811,-4.38201 1.027,-1.45287 1.83061,-3.35718 1.78579,-4.23178 -0.0448,-0.8746 0.56724,-1.62342 1.3601,-1.66405 0.79287,-0.0406 2.14825,-1.42344 3.01198,-3.07294 0.86372,-1.64948 2.59515,-3.5309 3.84763,-4.18092 1.25248,-0.65001 2.25331,-1.64883 2.22407,-2.21959 -0.0293,-0.57076 1.50686,-2.7162 3.41357,-4.76763 4.31217,-4.63949 5.58139,-13.72064 1.89122,-13.53156 -1.10967,0.0569 -2.24173,0.79074 -2.51569,1.63086 -0.27395,0.84012 -1.22929,1.56496 -2.12297,1.61075 -0.89369,0.0458 -2.77487,0.98218 -4.18039,2.08088 -1.40552,1.0987 -4.32135,2.71012 -6.47962,3.58093 -2.15827,0.87081 -4.1366,1.83351 -4.39629,2.13935 -1.60251,1.88724 -8.5871,7.42863 -9.41695,7.47114 -0.54878,0.0281 -1.21722,0.72402 -1.4854,1.54644 -0.26818,0.82242 -2.0106,2.22532 -3.87204,3.11756 -1.86145,0.89224 -3.8398,2.58896 -4.39634,3.77051 -0.73244,1.55496 -1.64322,2.02376 -3.29784,1.69745 -1.74188,-0.34352 -2.5802,0.17396 -3.52233,2.17408 -0.68003,1.44369 -1.83458,2.65553 -2.56568,2.69299 -0.73111,0.0375 -1.30625,0.51752 -1.27811,1.0668 0.0281,0.54928 -0.55554,1.02978 -1.29709,1.06777 -0.74155,0.038 -3.55542,2.88571 -6.25305,6.32826 -2.69763,3.44255 -5.47326,6.28831 -6.16806,6.32391 -1.63485,0.0838 -9.20968,7.81905 -9.13247,9.32592 0.0325,0.63366 -0.59928,1.18583 -1.40388,1.22705 -0.80459,0.0412 -1.89787,0.99842 -2.42951,2.12711 -0.53165,1.12868 -1.51242,2.08319 -2.1795,2.12113 -0.66707,0.0382 -2.20155,1.69363 -3.40992,3.67931 -1.20837,1.98567 -2.58852,3.63038 -3.06699,3.65489 -0.47848,0.0245 -0.83542,0.71869 -0.79321,1.54261 0.0422,0.82392 -0.74612,1.5402 -1.75186,1.59173 -1.00574,0.0515 -2.37235,1.24803 -3.03691,2.65888 -0.66455,1.41086 -1.79064,2.59503 -2.50242,2.6315 -0.71178,0.0365 -1.72912,0.98978 -2.26076,2.11846 -0.53164,1.12868 -1.62492,2.08588 -2.42952,2.1271 -0.80459,0.0412 -1.44345,0.45447 -1.41969,0.91831 0.0238,0.46384 -1.01286,2.20667 -2.30362,3.87295 -1.29075,1.66629 -2.31859,3.59139 -2.28408,4.27803 0.0345,0.68663 -0.61137,1.28296 -1.43529,1.32518 -0.82392,0.0422 -1.4635,0.75087 -1.42128,1.57479 0.0422,0.82391 -0.34827,1.51981 -0.86774,1.54642 -1.89231,0.097 -12.66449,13.27748 -14.21237,17.38987 -0.87502,2.32473 -2.03547,4.53401 -2.57877,4.90952 -0.5433,0.37551 -2.25876,3.19415 -3.81214,6.26365 -3.1099,6.1452 -3.40983,6.21132 -32.65944,7.19917 -14.28673,0.48251 -18.1757,-2.59052 -12.44491,-9.83387 1.60648,-2.03047 2.66665,-4.26476 2.35592,-4.96505 -0.32932,-0.74222 0.64394,-1.88418 2.33355,-2.73801 1.59417,-0.8056 3.09933,-2.21052 3.34478,-3.12203 1.21389,-4.50777 3.09227,-8.16482 6.14426,-11.96238 1.84643,-2.29749 3.34023,-4.51433 3.31955,-4.92631 -0.0207,-0.41198 0.63652,-0.7836 1.46044,-0.82581 0.82392,-0.0422 1.45658,-0.88587 1.40591,-1.87478 -0.0507,-0.98891 2.02665,-4.43543 4.61627,-7.6589 3.07429,-3.82679 4.46908,-6.40025 4.01886,-7.41498 -0.69051,-1.55626 -3.50652,-2.08661 -3.43273,-0.64652 0.0216,0.42076 -2.24157,2.42066 -5.02918,4.44421 -2.7876,2.02357 -5.61374,4.52675 -6.28028,5.56263 -0.66656,1.03589 -2.26189,1.93723 -3.54518,2.00298 -1.28327,0.0658 -2.54472,0.76813 -2.80322,1.56083 -0.25849,0.79271 -3.22331,3.22977 -6.5885,5.4157 -7.32905,4.76076 -12.24272,8.46068 -14.60449,10.99697 -0.95746,1.02821 -2.38996,1.76894 -3.18333,1.64608 -0.79337,-0.12286 -1.67365,0.48548 -1.95616,1.35187 -0.28253,0.86639 -1.25171,1.61986 -2.15377,1.67437 -2.32247,0.14033 -10.80543,3.9303 -17.99169,8.03819 -0.92908,0.5311 -2.86187,1.02571 -4.29509,1.09914 -2.39079,0.1225 -6.57292,2.2113 -10.17124,5.08012 -1.34628,1.07334 -6.59709,2.76889 -14.77522,4.77109 -1.90364,0.46605 -4.06585,1.38956 -4.8049,2.05224 -1.94129,1.74068 -38.62054,3.92171 -42.02357,2.4988 -12.16279,-5.08558 -19.19782,-14.03019 -21.04081,-26.75207 -0.93188,-6.43269 -1.14706,-6.86688 -3.0725,-6.19977 -3.9195,1.35799 -7.44496,3.30702 -7.40466,4.09363 0.0222,0.43352 -4.09175,3.03912 -9.14216,5.79022 -5.0504,2.75112 -9.68684,5.67719 -10.30322,6.50239 -0.61636,0.8252 -2.18916,1.55512 -3.4951,1.62203 -1.30594,0.0669 -2.35141,0.57107 -2.32327,1.12035 0.0281,0.54928 -0.95832,1.08334 -2.19214,1.18682 -1.23382,0.10347 -3.54743,1.11822 -5.14135,2.25502 -3.44306,2.45562 -3.3808,2.42654 -10.26805,4.79573 -2.97651,1.02391 -9.15586,2.51964 -13.73188,3.32385 -4.57602,0.80421 -8.80139,1.88231 -9.38971,2.39577 -2.29221,2.00061 -19.54655,4.34205 -21.373,2.90035 -0.93127,-0.73509 -2.77766,-1.60792 -4.10309,-1.93962 -6.32306,-1.58239 -23.27542,-21.90283 -23.60279,-28.29216 -0.0303,-0.5906 -0.50769,-1.83305 -1.06096,-2.76099 -0.55326,-0.92795 -2.1113,-3.88267 -3.46231,-6.56607 -1.35101,-2.68339 -3.57592,-5.81467 -4.94425,-6.95837 -1.36834,-1.14371 -2.51986,-2.70362 -2.55894,-3.46647 -0.22093,-4.31185 -14.49745,-7.77338 -19.51405,-4.73143 -2.00104,1.21339 -4.314,2.24078 -5.13991,2.28309 -0.82591,0.0423 -1.48267,0.44737 -1.45948,0.90011 0.0232,0.45274 -1.6575,2.67916 -3.73489,4.94759 -2.07739,2.26845 -3.75922,4.62097 -3.73739,5.22783 0.0221,0.60685 -1.02172,2.37327 -2.319,3.92533 -1.29728,1.55207 -2.32119,3.55384 -2.27536,4.44839 0.0458,0.89456 -1.84252,3.61337 -4.19634,6.04183 -2.35381,2.42846 -4.24061,5.17758 -4.19288,6.10917 0.0826,1.61113 -3.03586,6.8951 -6.74065,11.42164 -0.94134,1.15011 -2.54237,3.59812 -3.55786,5.43999 -1.01549,1.84188 -2.36883,3.42709 -3.00741,3.52272 -3.70754,0.55514 -12.73234,0.31785 -16.21149,-0.42626 -2.41364,-0.51621 -7.1436,-0.43605 -11.70827,0.19843 -12.26305,1.70453 -17.04616,-2.67121 -11.60539,-10.61696 1.40905,-2.05779 2.46198,-3.86473 2.33985,-4.01543 -0.12213,-0.1507 1.07726,-1.8243 2.66529,-3.7191 5.87475,-7.0096 10.12891,-14.61584 8.91335,-15.93667 -0.87097,-0.94641 -0.55105,-1.504 1.34042,-2.33625 1.36645,-0.60125 3.15846,-2.72422 3.98226,-4.71772 0.82381,-1.99349 1.9309,-3.38661 2.46019,-3.09581 1.4028,0.77069 3.93433,-1.88884 3.25511,-3.41968 -0.31855,-0.71795 1.09719,-3.2587 3.14609,-5.64612 2.04891,-2.38742 3.94801,-5.19119 4.22023,-6.23061 0.27221,-1.03941 0.91405,-1.91132 1.42632,-1.93756 0.51226,-0.0263 0.90386,-0.5849 0.87022,-1.24144 -0.0336,-0.65655 1.05779,-2.48821 2.4254,-4.07037 2.29872,-2.65935 2.35725,-2.99336 0.77476,-4.42159 -0.94149,-0.8497 -1.69976,-1.17541 -1.68505,-0.72379 0.0151,0.45161 -0.36449,0.26934 -0.84264,-0.40506 -0.63172,-0.891 -1.20222,-0.5196 -2.08689,1.35856 -0.66962,1.42162 -1.76759,2.61295 -2.43993,2.6474 -0.67234,0.0344 -1.44656,0.75001 -1.72052,1.59012 -0.27395,0.84012 -1.07821,1.55722 -1.78724,1.59355 -0.70903,0.0363 -1.80442,0.99363 -2.4342,2.12734 -0.62977,1.13371 -1.737,2.09162 -2.46052,2.1287 -0.72352,0.0371 -2.26881,1.19236 -3.43399,2.56733 -1.42664,1.68349 -2.81238,2.35595 -4.24318,2.05908 -1.65899,-0.34422 -1.96914,-0.0903 -1.41502,1.15858 0.51436,1.15925 -0.22699,2.10417 -2.69375,3.43343 -1.87187,1.0087 -3.78501,2.64416 -4.25143,3.63437 -0.46642,0.9902 -1.96881,2.14351 -3.33865,2.5629 -1.36985,0.41939 -2.46747,1.2145 -2.43917,1.7669 0.0283,0.55242 -1.05017,1.48912 -2.39662,2.08157 -1.34645,0.59244 -2.42449,1.53771 -2.39565,2.10058 0.0288,0.56287 -0.68098,1.06099 -1.5774,1.10692 -1.89621,0.0972 -8.32355,4.2781 -9.29705,6.04767 -0.36591,0.66514 -2.10646,1.87153 -3.86788,2.68088 -1.76144,0.80934 -4.39488,2.38582 -5.85211,3.50327 -1.45723,1.11745 -2.66699,1.69053 -2.68835,1.2735 -0.0214,-0.41702 -0.65398,0.14795 -1.4058,1.25549 -0.75181,1.10754 -1.39879,1.67175 -1.43773,1.2538 -0.0389,-0.41795 -1.80163,0.4609 -3.91712,1.953 -2.11549,1.4921 -4.4435,2.74351 -5.17335,2.78091 -0.72985,0.0374 -2.16556,0.77251 -3.19046,1.63359 -1.0249,0.86107 -2.8948,1.63277 -4.15533,1.71488 -1.47237,0.0959 -2.84396,1.23657 -3.83584,3.19006 -1.14198,2.24907 -2.08541,2.934 -3.62352,2.63068 -1.49539,-0.29491 -2.42035,0.31345 -3.29283,2.16573 -0.66731,1.41671 -1.48853,2.53872 -1.82493,2.49335 -0.33639,-0.0453 -1.85,0.50431 -3.3636,1.22152 -1.51358,0.7172 -3.52155,1.34343 -4.46212,1.39163 -0.94059,0.0482 -2.74714,0.8961 -4.01456,1.88424 -4.05443,3.16101 -11.70204,4.18429 -15.53474,2.07861 -4.326,-2.3767 -5.37353,-5.49016 -2.30192,-6.84169 1.25143,-0.55065 2.54994,-1.50098 2.88555,-2.11185 0.33561,-0.61088 1.05026,-0.8689 1.58812,-0.57341 0.53784,0.2955 2.43566,-0.47028 4.21737,-1.70172 1.78171,-1.23145 4.42231,-2.2996 5.86799,-2.37367 1.4707,-0.0753 2.59965,-0.6981 2.56299,-1.41376 -0.036,-0.7035 1.14223,-1.89098 2.61839,-2.63886 1.47617,-0.74788 3.77344,-2.08135 5.10506,-2.96329 3.22717,-2.13734 13.10842,-7.19251 14.24231,-7.28624 1.14053,-0.0943 11.98466,-7.95676 13.9868,-10.14106 0.82611,-0.90126 2.45798,-1.68764 3.62637,-1.74751 1.16841,-0.0599 2.88417,-1.0124 3.81279,-2.11674 0.92864,-1.10435 2.90843,-2.38111 4.39955,-2.83726 1.49111,-0.45613 2.69087,-1.2244 2.66613,-1.70724 -0.0578,-1.12734 7.22025,-6.28183 8.99844,-6.37294 0.74291,-0.0381 2.72312,-1.96835 4.40047,-4.28953 2.66135,-3.68287 3.42345,-4.15809 5.98426,-3.73165 2.28774,0.38097 2.91643,0.13557 2.85243,-1.11344 -0.0451,-0.88115 1.01956,-2.08683 2.366,-2.67927 1.34645,-0.59245 2.42314,-1.56424 2.39263,-2.15954 -0.0305,-0.59528 0.37107,-0.84801 0.89237,-0.56161 0.52128,0.2864 1.73228,-0.58907 2.6911,-1.94548 0.95881,-1.35642 3.14894,-3.28685 4.86693,-4.28987 1.71801,-1.00301 3.10121,-2.26153 3.07379,-2.79671 -0.0274,-0.53518 0.62426,-1.00758 1.44818,-1.0498 0.82392,-0.0422 1.47728,-0.48177 1.45192,-0.97679 -0.0542,-1.05701 6.30058,-5.4254 8.03505,-5.52349 0.65505,-0.0366 1.87098,-1.41926 2.70211,-3.07157 0.83113,-1.65233 2.94975,-3.84412 4.70803,-4.87065 1.7583,-1.02653 3.81055,-2.54636 4.56056,-3.3774 0.75003,-0.83102 2.38855,-2.26014 3.64117,-3.17581 1.25261,-0.91566 2.24559,-2.28728 2.20661,-3.04802 -0.039,-0.76074 0.82795,-1.42923 1.92651,-1.48552 1.09856,-0.0563 1.9759,-0.52147 1.94966,-1.03373 -0.0263,-0.51226 0.72498,-1.24035 1.66939,-1.61797 0.94442,-0.37762 4.24306,-4.15286 7.33032,-8.38942 3.82651,-5.25104 7.00887,-8.45538 9.99796,-10.06704 2.59151,-1.39729 5.71797,-4.31779 7.64461,-7.14099 1.79291,-2.62725 3.71479,-5.28387 4.27084,-5.9036 0.55603,-0.61974 1.44851,-2.62792 1.98327,-4.46262 0.53476,-1.83471 2.41168,-5.31031 4.17094,-7.72355 1.75926,-2.41324 3.4514,-5.39471 3.76032,-6.62547 0.30891,-1.23076 1.82877,-3.41985 3.37748,-4.86464 1.5487,-1.44479 2.78679,-3.1935 2.75131,-3.88604 -0.0823,-1.60668 4.23459,-8.75023 7.61516,-12.60141 1.43095,-1.63017 2.56819,-3.61864 2.52719,-4.41882 -0.041,-0.80018 1.09667,-2.78036 2.52815,-4.40041 3.36437,-3.80757 9.50191,-13.50408 11.86729,-18.74877 1.0193,-2.26008 3.22497,-5.59501 4.90148,-7.41098 1.6765,-1.81596 2.81303,-3.51399 2.52562,-3.77339 -0.28742,-0.25939 1.14823,-2.8059 3.19033,-5.6589 2.0421,-2.85299 3.69289,-5.57797 3.66843,-6.0555 -0.0245,-0.47752 0.43702,-0.8929 1.02554,-0.92305 1.40265,-0.0719 3.79283,-2.74981 3.72016,-4.16805 -0.0314,-0.61248 1.01819,-2.38816 2.33239,-3.94594 1.3142,-1.55778 2.61572,-3.95162 2.89227,-5.31963 0.27655,-1.36802 2.56623,-4.77357 5.08817,-7.5679 2.52194,-2.79433 4.54038,-5.95802 4.48544,-7.03042 -0.055,-1.0724 0.3495,-1.97285 0.89878,-2.00099 0.54928,-0.0281 0.9683,-0.64439 0.93115,-1.36944 -0.0371,-0.72505 1.41123,-3.2365 3.21863,-5.58098 1.8074,-2.34449 3.25801,-4.81266 3.22357,-5.48484 -0.0745,-1.45335 3.70466,-5.29106 4.6817,-4.75427 0.3744,0.20569 1.85238,-1.70652 3.2844,-4.24937 2.03645,-3.61616 3.11338,-4.58294 4.94349,-4.43785 2.76733,0.21937 2.94954,-0.0973 1.80849,-3.14235 -0.50932,-1.3592 -0.43679,-2.78429 0.17626,-3.46356 0.57291,-0.63479 1.00401,-1.88881 0.958,-2.78671 -0.21101,-4.11822 11.02023,-10.79215 15.46751,-9.19125 0.88786,0.3196 5.89265,0.5374 11.12177,0.48398 18.36359,-0.18757 21.691,1.5494 18.98013,9.90803 -0.93245,2.8751 -2.4536,5.25823 -3.80351,5.9588 -1.23727,0.64213 -2.48679,2.1251 -2.77667,3.29551 -0.28991,1.1704 -1.52516,3.6135 -2.74502,5.4291 -1.21986,1.81559 -2.19737,3.70215 -2.17226,4.19232 0.0251,0.49019 -1.02378,2.0043 -2.33088,3.36472 -1.3071,1.36042 -2.34552,3.07889 -2.30761,3.81884 0.0379,0.73994 -0.99116,1.89553 -2.28684,2.56797 -2.12263,1.10161 -3.48063,3.57832 -3.65693,6.6695 -0.072,1.26195 -17.01673,25.1804 -19.1245,26.99529 -0.74692,0.64312 -1.03011,1.64377 -0.62931,2.22366 0.40079,0.57988 0.1286,1.45072 -0.60482,1.93518 -0.73344,0.48446 -2.0373,2.60662 -2.89745,4.7159 -0.86017,2.10928 -2.18684,3.86697 -2.94818,3.90598 -0.76133,0.039 -1.34873,0.764 -1.30532,1.61111 0.0434,0.8471 -0.33592,2.10566 -0.84293,2.7968 -4.28678,5.84361 -5.61706,7.92179 -5.57659,8.71182 0.0259,0.50454 -1.23504,2.27812 -2.80199,3.94128 -1.56695,1.66316 -2.8293,3.40845 -2.80522,3.87841 0.0355,0.6935 -5.25439,9.20778 -8.52704,13.72452 -4.18207,5.77185 -6.31231,9.3374 -6.25437,10.46837 0.0383,0.74681 -1.41415,3.17949 -3.2276,5.40594 -1.81345,2.22645 -3.27119,4.5554 -3.23942,5.17542 0.0318,0.62003 -0.66443,1.16433 -1.54712,1.20956 -1.01626,0.0521 -1.36589,0.62086 -0.95327,1.55081 0.44321,0.99892 0.0228,1.5008 -1.31443,1.56931 -1.30025,0.0666 -1.93139,0.77715 -1.86371,2.09812 0.0563,1.09856 -0.34707,2.0204 -0.89634,2.04855 -0.54928,0.0281 -0.95087,0.98456 -0.89242,2.12537 0.0584,1.14081 -1.15315,3.46966 -2.69245,5.17522 -1.5393,1.70555 -3.74005,4.59984 -4.89057,6.43175 -1.15052,1.83191 -2.57771,3.80623 -3.17154,4.38737 -0.59383,0.58115 -1.60472,2.6606 -2.24643,4.62101 -0.64171,1.9604 -1.46551,3.80497 -1.83066,4.09904 -1.64626,1.32578 -13.02134,17.99666 -12.98551,19.03106 0.022,0.6368 -1.43235,3.03069 -3.23202,5.31977 -3.56462,4.53398 -3.59277,4.61177 -2.31894,6.40847 0.91963,1.29712 7.94858,-3.56593 9.51109,-6.58032 0.41481,-0.80026 2.17653,-2.27639 3.91494,-3.2803 1.7384,-1.00391 3.1383,-2.26315 3.11088,-2.79833 -0.0274,-0.53518 0.63836,-1.0083 1.47952,-1.0514 0.84117,-0.0431 1.75352,-0.76573 2.02747,-1.60585 0.27396,-0.84012 1.12413,-1.55957 1.88929,-1.59877 0.76515,-0.0392 1.35664,-0.7454 1.31443,-1.56932 -0.0422,-0.82392 0.61146,-1.53329 1.45262,-1.57639 0.84116,-0.0431 1.75352,-0.76573 2.02747,-1.60585 0.27396,-0.84012 1.17181,-1.56201 1.99523,-1.6042 0.82342,-0.0422 2.34341,-1.27393 3.37777,-2.73722 1.07779,-1.52474 2.50502,-2.4569 3.34324,-2.18356 0.80724,0.26323 2.4383,-0.6904 3.64014,-2.12828 1.19764,-1.43286 2.58344,-2.62599 3.07955,-2.65141 0.4961,-0.0254 2.49786,-1.25446 4.44834,-2.7312 1.95049,-1.47674 4.52768,-2.73527 5.72711,-2.79672 1.19941,-0.0615 4.39506,-1.88114 7.10142,-4.04374 2.79186,-2.23093 6.84823,-4.39127 9.37619,-4.9936 2.45053,-0.58387 4.875,-1.66894 5.38768,-2.41126 0.51269,-0.74234 4.27405,-2.08227 8.35859,-2.97763 4.08453,-0.89536 9.86701,-2.23563 12.84995,-2.97837 11.45928,-2.85332 25.96246,-2.63791 33.6813,0.50027 7.2617,2.95232 16.98402,10.92182 17.14448,14.05352 0.0293,0.57247 0.44823,1.02061 0.93086,0.99588 0.94561,-0.0485 2.74778,3.37431 4.5198,8.58422 0.88407,2.59925 0.7838,3.61351 -0.49961,5.05363 -1.80169,2.02169 -3.97435,8.56144 -3.44995,10.38441 0.18833,0.65466 -1.07028,2.00025 -2.79689,2.99018 -1.72662,0.98994 -3.12073,2.36217 -3.09802,3.04941 0.0227,0.68724 -0.63284,1.28406 -1.45675,1.32628 -0.82392,0.0422 -1.47606,0.50574 -1.44919,1.03005 0.0608,1.18675 -4.46553,6.28219 -5.6337,6.34204 -0.47234,0.0242 -2.6609,1.7134 -4.86345,3.75378 -2.20255,2.04038 -4.86094,3.75365 -5.90753,3.80728 -1.0466,0.0536 -1.86836,0.77161 -1.82614,1.59553 0.0474,0.92571 -0.86207,1.54614 -2.38059,1.62394 -1.35155,0.0693 -2.97357,0.73858 -3.6045,1.48739 -0.63093,0.74881 -2.37226,1.24532 -3.86962,1.10333 -1.49735,-0.14198 -3.00167,0.25002 -3.34293,0.87121 -0.34126,0.62115 -1.40288,1.16944 -2.35917,1.21844 -0.95628,0.049 -2.25197,0.65779 -2.87929,1.35287 -1.29732,1.43744 -9.27667,4.16604 -12.92314,4.41917 -3.08925,0.21446 -15.06512,3.81368 -16.33409,4.90905 -0.5274,0.45524 -4.53828,1.32246 -8.91307,1.92714 -6.95263,0.96099 -18.99197,3.40951 -27.49984,5.59282 -1.49483,0.3836 -2.68783,1.28382 -2.65111,2.00047 0.0367,0.71665 -0.1696,2.02785 -0.45849,2.91378 -0.29129,0.8933 -0.0137,1.58456 0.62314,1.55193 4.17208,-0.21376 19.31161,13.97458 23.80093,22.30557 6.01783,11.16748 19.70633,17.1341 25.48758,11.10967 0.49667,-0.51755 1.8886,-0.9915 3.09317,-1.05322 1.20458,-0.0617 2.38513,-0.71017 2.62344,-1.441 0.23832,-0.73084 2.29444,-2.05059 4.56917,-2.93278 2.27473,-0.88219 4.32978,-2.19869 4.5668,-2.92553 0.24779,-0.75989 1.35242,-1.15849 2.59915,-0.93789 1.46927,0.25997 3.68064,-0.90467 6.86,-3.61288 2.58048,-2.19809 5.45577,-4.50385 6.38953,-5.12391 0.93375,-0.62006 2.41454,-1.78706 3.29063,-2.59333 0.87609,-0.80626 2.7957,-1.65419 4.26582,-1.88429 1.47011,-0.23011 3.24237,-1.37009 3.93834,-2.53331 0.69598,-1.16321 1.7766,-2.14112 2.4014,-2.17313 0.62479,-0.032 1.65126,-0.98579 2.28104,-2.1195 0.62977,-1.13371 2.17824,-2.11423 3.44105,-2.17894 2.38946,-0.12243 8.28362,-8.03717 8.13567,-10.92466 -0.0404,-0.78854 0.76571,-1.93968 1.79136,-2.55811 1.02565,-0.61842 2.3298,-2.8414 2.89811,-4.93995 1.69727,-6.26734 4.14636,-10.74453 8.40846,-15.37159 2.2167,-2.40651 5.42686,-6.01466 7.13368,-8.0181 1.70682,-2.00344 5.69258,-5.06282 8.85725,-6.79863 3.16467,-1.7358 5.92118,-3.95082 6.12558,-4.92227 0.2044,-0.97146 1.18717,-2.07385 2.18396,-2.44974 5.51124,-2.07838 9.51778,-4.58663 10.78196,-6.74995 1.04019,-1.78002 2.04239,-2.32262 3.68983,-1.99773 1.49572,0.29497 2.435,-0.0852 2.77324,-1.1225 0.28131,-0.86269 1.84145,-2.10998 3.46697,-2.77174 1.62553,-0.66177 2.92883,-1.72366 2.89623,-2.35975 -0.0564,-1.10072 5.30886,-4.41589 6.12525,-3.78477 0.21386,0.16532 2.35915,-1.49008 4.76733,-3.67868 2.40817,-2.18859 5.35705,-4.0294 6.55305,-4.09068 1.19601,-0.0613 3.33553,-0.79513 4.75449,-1.63077 8.61108,-5.07121 15.28955,-7.93181 17.94588,-7.68681 0.91932,0.0848 1.9384,-0.33166 2.26463,-0.92545 0.32622,-0.59379 1.60026,-1.13122 2.83119,-1.19429 1.23092,-0.0631 2.65416,-0.57574 3.16276,-1.13927 2.50586,-2.77651 30.9939,-4.87112 36.0768,-2.65258 1.8244,0.7963 4.63178,1.66674 6.23862,1.93432 4.11997,0.68609 11.47965,6.59145 11.61963,9.32353 0.0625,1.22055 0.53049,2.62587 1.03988,3.12296 1.93004,1.8834 2.74069,8.31028 1.13792,9.02143 -0.83035,0.36842 -1.26709,1.02091 -0.97055,1.44997 0.79228,1.14629 -2.43892,7.10415 -3.89742,7.18628 -0.68645,0.0382 -1.2135,0.74439 -1.17128,1.56831 0.0422,0.82392 -0.74048,2.40354 -1.73933,3.51027 -0.99884,1.10672 -1.57996,2.22532 -1.29139,2.48577 0.28859,0.26046 -1.52066,1.50652 -4.02054,2.76904 -2.49988,1.26252 -4.2727,2.68981 -3.93959,3.17177 0.8542,1.23589 -2.92427,6.29908 -4.77139,6.39372 -0.95184,0.0488 -1.28553,0.63491 -0.88079,1.54709 0.42951,0.96805 0.0428,1.49978 -1.13457,1.5601 -0.98239,0.0503 -3.2272,1.51713 -4.98846,3.25953 -1.76127,1.74241 -3.64071,3.19048 -4.17653,3.21793 -0.53582,0.0275 -2.38968,1.24892 -4.11968,2.71436 -1.72999,1.46545 -4.0368,2.71012 -5.12623,2.76594 -1.08944,0.0558 -2.10823,0.54558 -2.264,1.08835 -0.15576,0.54279 -1.26667,1.18759 -2.46869,1.4329 -1.20203,0.24532 -2.95587,1.19232 -3.89743,2.10445 -0.94156,0.91213 -3.33659,2.03586 -5.32229,2.4972 -1.9857,0.46133 -4.62617,1.69239 -5.8677,2.73569 -1.24154,1.0433 -3.49195,2.04314 -5.00092,2.22187 -1.50898,0.17874 -4.33365,1.08713 -6.27706,2.01866 -1.9434,0.93152 -5.02499,1.77009 -6.84798,1.8635 -1.82298,0.0934 -3.53944,0.57923 -3.81434,1.07961 -0.27491,0.50039 -4.18606,1.63438 -8.69146,2.51999 -13.18789,2.59229 -22.7892,5.911 -24.36427,8.42155 -0.76371,1.2173 -2.7788,3.66104 -4.47798,5.43054 -1.69918,1.7695 -3.0476,4.03339 -2.99649,5.03088 0.0511,0.99749 -0.50286,1.84415 -1.23103,1.88146 -1.34209,0.0688 -5.45934,4.34087 -5.39494,5.59784 0.0193,0.37656 -1.59673,2.49271 -3.59116,4.70256 -14.10236,15.62554 -1.59644,29.5852 16.8541,18.81328 1.5234,-0.8894 5.02552,-1.83129 7.7825,-2.09309 2.98582,-0.28354 5.18502,-1.00453 5.4389,-1.78311 0.23442,-0.7189 1.53734,-1.36402 2.89536,-1.4336 1.35802,-0.0696 2.72385,-0.59016 3.03518,-1.15683 0.31133,-0.56667 1.39027,-1.07254 2.39765,-1.12416 1.00738,-0.0516 2.05572,-0.78122 2.32968,-1.62133 0.30857,-0.94628 1.79937,-1.59417 3.91801,-1.70272 2.11863,-0.10855 3.60943,-0.75644 3.918,-1.70272 0.27395,-0.84011 1.57512,-1.58267 2.89148,-1.65012 1.31637,-0.0674 3.43715,-1.03386 4.71287,-2.14759 1.27571,-1.11371 4.07663,-2.59745 6.22429,-3.29719 2.14765,-0.69974 4.38391,-2.13984 4.96947,-3.20025 0.58555,-1.06039 3.097,-2.61094 5.58099,-3.44567 2.55257,-0.85776 4.48586,-2.11261 4.44624,-2.88592 -0.0385,-0.75253 0.63399,-1.40432 1.49457,-1.44841 0.86057,-0.0441 2.98011,-1.27917 4.71011,-2.74461 1.73,-1.46545 4.2265,-2.72113 5.54776,-2.79042 1.56419,-0.0821 3.04525,-1.21391 4.24516,-3.24437 1.18159,-1.99943 3.25525,-3.60208 5.77903,-4.46637 2.1649,-0.74139 5.01129,-2.35043 6.32532,-3.57563 3.90729,-3.64319 8.49701,-7.00612 9.64201,-7.06478 0.58876,-0.0302 1.29462,-0.74222 1.56857,-1.58234 0.27396,-0.84012 1.3703,-1.57218 2.43632,-1.6268 1.06602,-0.0546 2.92189,-1.27618 4.12417,-2.71459 1.20229,-1.4384 2.9209,-2.65294 3.81915,-2.69896 0.89825,-0.046 1.61016,-0.53309 1.58202,-1.08237 -0.0281,-0.54928 0.60061,-1.03209 1.39724,-1.0729 0.79662,-0.0408 1.77564,-0.72029 2.17559,-1.50993 0.39994,-0.78964 2.32283,-2.48599 4.27309,-3.76968 1.95025,-1.28368 3.76317,-3.00021 4.0287,-3.81453 0.26554,-0.8143 1.06291,-1.51027 1.77194,-1.5466 0.70903,-0.0363 1.80442,-0.99364 2.43419,-2.12735 0.62977,-1.13371 1.81534,-2.09563 2.63461,-2.13761 0.81926,-0.042 1.46655,-0.52573 1.4384,-1.07501 -0.0613,-1.19674 3.39974,-5.18076 4.552,-5.23979 0.95179,-0.0488 7.22682,-9.15558 7.16327,-10.3959 -0.0238,-0.46388 2.38968,-4.04103 5.36321,-7.94924 2.97353,-3.90822 5.92528,-7.79369 6.55943,-8.6344 1.57082,-2.08247 4.33871,-8.03917 4.27881,-9.2083 -0.0268,-0.52297 1.01269,-2.22073 2.30997,-3.77279 1.29728,-1.55207 2.32669,-3.44641 2.28759,-4.20964 -0.23842,-4.65328 36.70959,-9.21468 43.71306,-5.39658 2.17476,1.18562 2.63298,7.15476 0.67622,8.80892 -1.03299,0.87323 -6.14423,7.82778 -7.63495,10.3884 -3.63309,6.24059 -9.70217,14.76757 -10.88404,15.29196 -0.72573,0.322 -1.27247,1.50314 -1.215,2.62477 0.0575,1.12163 -1.33642,3.58969 -3.09753,5.48458 -2.33778,2.51537 -2.88886,3.72789 -2.04177,4.49241 0.84709,0.76452 0.29067,1.9475 -2.06151,4.38295 -1.77197,1.83468 -2.74593,3.46777 -2.16437,3.62907 1.52697,0.42352 9.23685,-5.61024 14.69525,-11.50052 2.584,-2.78846 5.1188,-5.24599 5.63289,-5.46118 1.16462,-0.48749 6.89088,-5.67734 11.11705,-10.07564 1.75356,-1.82498 4.76379,-3.92917 6.6894,-4.67598 1.92561,-0.7468 3.48293,-1.71265 3.4607,-2.14634 -0.0437,-0.85325 7.07455,-6.47321 9.86441,-7.78808 0.94104,-0.4435 1.68721,-1.27027 1.65816,-1.83725 -0.0291,-0.56698 0.79792,-1.07446 1.83771,-1.12774 1.0398,-0.0533 2.11467,-0.78423 2.38863,-1.62435 0.32877,-1.00824 1.86672,-1.59762 4.5242,-1.73378 2.76648,-0.14175 4.0039,-0.6395 3.95515,-1.59097 -0.039,-0.76158 1.1522,-1.69649 2.64716,-2.07758 6.11261,-1.55821 8.66191,-2.45851 9.10902,-3.21687 0.69176,-1.17334 14.81131,-2.00257 19.07241,-1.12011 12.0381,2.4931 17.4362,10.74581 15.0288,22.97623 -0.438,2.22532 -0.8935,5.60762 -1.0123,7.51619 -0.1188,1.90858 -0.8997,4.02591 -1.7353,4.7052 -0.8356,0.67928 -1.4829,1.94546 -1.4384,2.81373 0.044,0.86826 -0.3682,1.88904 -0.917,2.26837 -1.2257,0.84717 -4.1344,8.17313 -4.8087,12.11137 -0.4898,2.86081 -0.4294,2.83501 4.6671,-1.99142 2.8398,-2.68937 5.6007,-4.91217 6.1353,-4.93956 0.5345,-0.0274 1.5156,-1.20414 2.1802,-2.61499 0.6645,-1.41085 1.6983,-2.5903 2.2973,-2.62099 0.599,-0.0307 1.6043,-0.98338 2.2341,-2.11709 0.6298,-1.13371 2.04,-2.10715 3.1339,-2.1632 1.09387,-0.0561 1.96707,-0.52817 1.94037,-1.04915 -0.068,-1.3364 4.1967,-6.27448 5.476,-6.34003 0.5844,-0.0299 1.6263,-0.67171 2.3154,-1.42614 0.6891,-0.75444 3.0642,-2.51066 5.278,-3.90271 2.2137,-1.39206 4.5187,-3.57931 5.1222,-4.86055 0.6036,-1.28125 2.2695,-2.62998 3.7022,-2.9972 1.4327,-0.3672 3.5497,-1.64817 4.7044,-2.84658 1.1547,-1.19842 2.9038,-2.23846 3.8869,-2.31121 0.983,-0.0727 3.2353,-1.50509 5.005,-3.18299 1.7698,-1.67789 3.8279,-2.85176 4.5737,-2.60859 0.7457,0.24316 2.7825,-0.72519 4.5262,-2.15191 12.7245,-10.41138 37.9504,-7.1103 44.2825,5.79486 2.2316,4.54805 3.2266,13.52589 1.6219,14.63494 -0.5319,0.36762 -0.8871,2.22891 -0.7894,4.13621 0.1108,2.16123 -0.3757,3.71333 -1.2909,4.11942 -0.8077,0.35839 -1.4169,1.6604 -1.3537,2.89336 0.063,1.23298 -1.1611,3.72164 -2.7206,5.53037 -1.5595,1.80874 -2.813,3.72544 -2.7857,4.25932 0.027,0.53389 -1.716,2.85038 -3.874,5.14777 -2.5386,2.70232 -3.6852,4.71497 -3.2479,5.70062 0.4013,0.90448 -0.273,2.57499 -1.6594,4.11116 -1.2845,1.42318 -2.3137,3.00935 -2.2873,3.52484 0.026,0.51547 -0.5573,1.20577 -1.2969,1.53398 -0.7398,0.32822 -1.5546,2.14847 -1.8107,4.04501 -0.2562,1.89655 -1.5287,4.55451 -2.8278,5.90659 -1.2991,1.35208 -2.3306,3.06992 -2.2923,3.81742 0.1115,2.17608 -2.7668,6.44051 -4.4036,6.52437 -1.0341,0.053 -1.295,0.72235 -0.8404,2.15638 0.4761,1.50194 0.1292,2.24744 -1.2477,2.68399 -1.0488,0.33245 -1.8858,1.01518 -1.8601,1.51718 0.026,0.502 -1.4554,2.37437 -3.2914,4.16083 -2.3721,2.30809 -3.2953,4.08525 -3.19,6.14072 0.082,1.59095 -0.3012,2.91565 -0.8505,2.94379 -0.5492,0.0281 -0.963,0.74688 -0.9194,1.59718 0.071,1.38228 -5.7059,12.50893 -7.1843,13.83771 -2.7412,2.46382 -3.4023,7.38239 -1.2531,9.3221 1.8175,1.64031 15.2479,-0.95788 14.7348,-2.85052 -0.1697,-0.62627 0.2965,-1.16967 1.036,-1.20756 1.7874,-0.0916 7.4924,-3.34331 7.4462,-4.24421 -0.054,-1.06442 5.4063,-4.46397 6.1265,-3.81396 0.3431,0.30966 2.308,-0.91731 4.3666,-2.72659 2.0585,-1.80929 4.0451,-3.01677 4.4145,-2.68329 0.3695,0.33347 0.6323,-0.16609 0.5839,-1.11012 -0.052,-1.00927 1.1244,-2.20999 2.8546,-2.91438 1.6184,-0.65888 2.9218,-1.6034 2.8964,-2.09895 -0.025,-0.49554 0.357,-0.92164 0.8499,-0.9469 1.1007,-0.0564 5.8585,-4.39572 11.3412,-10.34388 2.2644,-2.45659 4.5418,-4.48829 5.0608,-4.51488 0.519,-0.0266 1.459,-0.97593 2.0888,-2.10965 0.6297,-1.1337 1.7207,-2.09078 2.4243,-2.12683 0.7035,-0.0361 3.4505,-2.44611 6.1043,-5.35569 2.6539,-2.90958 6.5273,-6.27134 8.6076,-7.47057 2.0804,-1.19922 3.7621,-2.57574 3.7374,-3.05893 -0.025,-0.48319 1.4921,-2.58168 3.3709,-4.66333 1.9581,-2.16973 3.1522,-4.37882 2.7981,-5.17685 -0.3397,-0.76563 0,-1.96251 0.7598,-2.65975 0.7576,-0.69725 1.3466,-1.8727 1.3087,-2.61212 -0.044,-0.86412 0.5675,-1.14241 1.7124,-0.77896 1.4936,0.47412 1.5684,0.32906 0.4633,-0.89829 -1.4666,-1.62869 -0.8778,-2.92115 1.0449,-2.29415 0.6856,0.22356 1.7022,-0.74655 2.2591,-2.15581 1.7251,-4.36559 12.2458,-17.39572 13.4924,-16.7108 0.509,0.27963 1.1591,-0.208 1.4446,-1.08362 0.2855,-0.87561 1.3698,-1.63562 2.4097,-1.68889 1.0397,-0.0533 1.8675,-0.54628 1.8393,-1.09556 -0.028,-0.54928 0.3983,-1.02172 0.9476,-1.04986 1.1684,-0.0599 4.8067,-3.89947 4.7497,-5.01248 -0.039,-0.76279 2.8276,-2.7184 6.0468,-4.12501 0.9427,-0.41189 1.6914,-1.25842 1.6638,-1.88117 -0.051,-1.1794 4.2884,-3.85786 6.4296,-3.96757 0.6774,-0.0347 1.4589,-0.93114 1.7367,-1.99207 0.4396,-1.67848 3.5159,-3.39985 6.9102,-3.86662 0.5836,-0.0803 1.7628,-0.92134 2.6203,-1.86905 14.941,-16.51368 45.368,-10.23444 52.9844,10.93445 1.0568,2.93723 4.6052,4.60597 4.4795,2.10658 -0.064,-1.24766 1.8976,-4.20958 6.7385,-10.18147 1.1645,-1.43647 2.3104,-3.49129 2.5464,-4.56628 0.7458,-3.39728 6.4013,-6.16764 11.6346,-5.69933 8.2254,0.73605 21.2434,0.60876 22.9103,-0.224 5.3781,-2.6868 16.0735,3.34729 11.5162,6.49713 -0.5319,0.36762 -0.9104,1.77503 -0.8411,3.12759 0.084,1.63317 -0.6678,2.87119 -2.2374,3.68577 -1.2999,0.67461 -2.5752,2.3005 -2.834,3.61308 -0.266,1.34892 -1.4467,2.68534 -2.7157,3.07384 -1.5595,0.47745 -2.8884,2.41623 -4.3524,6.34936 -1.1592,3.11413 -2.6861,5.91873 -3.3931,6.23246 -0.7071,0.31374 -1.2508,1.24984 -1.2083,2.08024 0.1017,1.98351 -8.4464,13.71585 -10.0568,13.80319 -0.6865,0.0372 -1.2134,0.7462 -1.1709,1.5755 0.043,0.82929 -0.7822,2.32345 -1.8325,3.32036 -1.0504,0.9969 -1.8698,2.59398 -1.8208,3.54908 0.049,0.95508 -0.6909,2.58256 -1.6441,3.61661 -2.9212,3.16909 -6.7285,9.29004 -6.1202,9.83913 0.3165,0.28553 -0.5257,1.48029 -1.8712,2.65505 -1.3457,1.17474 -2.4244,2.5712 -2.3971,3.10322 0.027,0.53201 -1.2117,2.7329 -2.7533,4.89087 -1.5416,2.15798 -2.76,4.7606 -2.7076,5.78363 0.052,1.02304 -0.2791,1.87924 -0.7367,1.90269 -1.1369,0.0583 -6.6408,12.38686 -5.9658,13.36338 0.2973,0.43014 -0.6977,2.28549 -2.2111,4.12302 -1.5133,1.83752 -2.938,4.31007 -3.1659,5.49455 -0.2278,1.18447 -0.7757,3.94504 -1.2175,6.1346 -1.5664,7.7635 6.736,10.03922 13.8781,3.80399 1.3027,-1.13727 3.4314,-2.12221 4.7306,-2.18878 1.2991,-0.0666 2.3394,-0.56187 2.3118,-1.10069 -0.028,-0.53881 1.0406,-1.31364 2.374,-1.72184 1.3333,-0.4082 2.9147,-1.399 3.5143,-2.20177 0.5996,-0.80277 2.1588,-1.51433 3.4647,-1.58124 1.5151,-0.0776 2.3447,-0.7025 2.2922,-1.72655 -0.049,-0.96177 0.4864,-1.41945 1.3368,-1.14213 0.7806,0.2545 2.3882,-0.68084 3.5727,-2.07855 1.1845,-1.39772 2.9741,-2.58334 3.9768,-2.63472 1.0028,-0.0514 1.7915,-0.71512 1.7526,-1.47497 -0.039,-0.75986 0.7009,-1.71016 1.6441,-2.11178 3.5067,-1.49325 7.1906,-4.17959 7.6458,-5.57559 0.2584,-0.79234 1.08,-1.47189 1.8258,-1.51011 0.7458,-0.0382 1.791,-0.99295 2.3227,-2.12163 0.5316,-1.12868 1.6249,-2.08588 2.4295,-2.12711 0.8045,-0.0412 1.4425,-0.47316 1.4175,-0.95985 -0.025,-0.48669 1.4894,-1.71189 3.3651,-2.72268 1.8758,-1.01077 3.3813,-2.40672 3.3457,-3.10211 -0.063,-1.23633 4.6919,-6.88928 5.845,-6.94836 1.3933,-0.0714 9.3214,-9.74391 9.2496,-11.28465 -0.1864,-3.98987 7.1984,-5.61626 10.6362,-2.34255 2.6936,2.56494 3.5835,7.98594 1.1825,7.20299 -0.9569,-0.31201 -1.5332,0.28746 -1.6637,1.73041 -0.1098,1.2143 -0.5311,2.12373 -0.9363,2.02096 -1.092,-0.27697 -5.5481,4.55248 -5.4772,5.93605 0.034,0.65602 -0.3694,0.95626 -0.8956,0.66719 -0.5261,-0.28907 -1.049,0.49966 -1.1618,1.75273 -0.1323,1.46937 -0.9972,2.43251 -2.4359,2.71258 -1.2269,0.23884 -2.2004,1.02544 -2.1634,1.74798 0.037,0.72254 -0.9096,2.03353 -2.1036,2.91331 -1.1941,0.87978 -4.0981,3.55864 -6.4535,5.95304 -2.3552,2.39438 -5.069,4.39373 -6.0305,4.443 -0.9615,0.0493 -1.6127,0.53399 -1.4472,1.07718 0.1655,0.54319 -0.7925,1.63247 -2.1289,2.4206 -1.3365,0.78815 -2.3285,2.18997 -2.2046,3.11517 0.1711,1.27809 -0.593,1.72411 -3.1806,1.8567 -2.6638,0.13648 -3.6259,0.73121 -4.4156,2.72952 -0.5552,1.40525 -1.3958,2.57479 -1.8678,2.59898 -0.472,0.0242 -2.648,1.3748 -4.8354,3.00136 -2.1874,1.62656 -5.7249,4.24282 -7.8612,5.81392 -2.1362,1.57108 -4.4905,2.65879 -5.2317,2.41711 -0.7411,-0.24167 -1.5777,0.26657 -1.859,1.12943 -0.2814,0.86287 -1.0733,1.3857 -1.7598,1.16185 -0.6864,-0.22384 -2.2549,0.56087 -3.4855,1.74378 -1.2306,1.18293 -3.1922,2.1997 -4.3592,2.2595 -1.167,0.0598 -3.0839,0.85885 -4.2598,1.77569 -1.176,0.91685 -4.0379,1.98235 -6.3597,2.36779 -2.3219,0.38545 -5.6419,1.45021 -7.3778,2.36614 -3.228,1.70322 -11.0743,2.30779 -14.7239,1.1345 -1.1199,-0.36003 -3.5081,-1.12305 -5.307,-1.69563 -8.5143,-2.7099 -13.2221,-10.67289 -13.8759,-23.47067 -0.4689,-9.15229 -1.3732,-9.96408 -6.199,-5.55668 -0.6436,0.58787 -3.1111,2.764 -5.4832,4.83585 -7.8582,6.86351 -9.5948,8.45875 -11.2247,10.31071 -0.8883,1.00928 -2.3451,1.87245 -3.2373,1.91816 -0.8922,0.0457 -3.0768,1.62484 -4.8546,3.50916 -3.6241,3.8413 -8.2544,6.61861 -10.7154,6.42726 -0.8996,-0.0699 -1.866,0.57947 -2.1476,1.4431 -0.2817,0.86365 -1.3985,1.61568 -2.4818,1.67119 -1.0834,0.0555 -2.2246,0.56457 -2.5359,1.13124 -0.3113,0.56667 -1.6365,1.08516 -2.9449,1.1522 -1.3084,0.067 -2.6032,0.53017 -2.8773,1.02918 -0.8207,1.49393 -4.7218,2.02567 -9.0227,1.22985 z m 11.7344,-15.26352 c 1.3251,-1.0081 3.8044,-2.17491 5.5093,-2.59291 3.0037,-0.7364 7.8628,-3.82094 13.1146,-8.32512 1.4022,-1.20266 3.4896,-2.23482 4.6387,-2.2937 1.3945,-0.0715 2.0564,-0.74476 1.9908,-2.02506 -0.068,-1.31912 0.8267,-2.17145 2.8641,-2.72959 1.9917,-0.54566 2.9312,-1.41795 2.8675,-2.66229 -0.052,-1.0179 0.7894,-2.18205 1.8701,-2.58701 1.0806,-0.40496 1.9358,-1.30418 1.9002,-1.99827 -0.036,-0.69409 1.1286,-1.96249 2.587,-2.81868 1.4585,-0.85619 4.6812,-3.80099 7.1615,-6.544 2.4803,-2.74301 4.8657,-5.00554 5.3009,-5.02784 0.4353,-0.0223 1.4025,-1.04645 2.1495,-2.27589 1.9951,-3.28363 9.1523,-11.32024 10.126,-11.37012 0.4611,-0.0236 1.3401,-2.12973 1.9532,-4.68021 0.6132,-2.55049 1.9273,-5.20445 2.9205,-5.89771 0.993,-0.69325 1.7678,-1.99616 1.7218,-2.89533 -0.046,-0.89918 0.5616,-2.22887 1.3505,-2.95488 0.7889,-0.72601 1.4019,-1.9532 1.3623,-2.72711 -0.04,-0.7739 0.5393,-1.67837 1.2866,-2.00995 0.7473,-0.33157 1.5588,-1.96222 1.8035,-3.62368 0.2446,-1.66146 1.0941,-3.74015 1.8875,-4.61934 0.7935,-0.87917 1.184,-1.97274 0.8679,-2.43015 -0.3161,-0.45741 -1.0117,-5.90518 -1.5457,-12.10615 -1.524,-17.69733 -9.8395,-27.38151 -17.0511,-19.85755 -0.4967,0.51815 -1.9563,0.99606 -3.2437,1.06202 -1.3652,0.07 -2.194,0.63637 -1.9887,1.35906 0.1937,0.68151 -0.4952,2.24084 -1.5308,3.46514 -5.3876,6.36893 -8.4482,10.94118 -8.388,12.53101 0.038,0.99563 -0.5856,1.7078 -1.4189,1.6211 -1.5084,-0.15693 -3.7467,4.04553 -3.6625,6.87624 0.056,1.90239 -3.0701,6.21588 -4.561,6.29227 -0.5985,0.0307 -1.0528,0.74885 -1.0094,1.59595 0.087,1.69964 -0.7742,3.06923 -5.3238,8.46475 -1.6873,2.00107 -3.0298,4.38003 -2.9834,5.28658 0.047,0.90656 -1.6563,3.76029 -3.784,6.34164 -2.1276,2.58133 -3.978,5.47536 -4.1117,6.43113 -0.5203,3.71701 -3.225,8.70282 -7.7092,14.21065 -2.5733,3.16082 -4.6565,6.48256 -4.6291,7.38166 0.027,0.89911 -1.8468,4.19487 -4.1647,7.32393 -2.3179,3.12907 -4.1762,6.43459 -4.1295,7.3456 0.047,0.91101 -0.8001,2.48585 -1.8817,3.49965 -3.1706,2.97179 -6.992,15.06001 -5.6891,17.9964 0.8729,1.96736 7.9477,0.72491 11.572,-2.03224 z M 720.49999,673.94326 c 0.49586,-0.53327 2.17888,-1.03503 3.74006,-1.11502 1.56116,-0.08 3.35904,-0.60703 3.9953,-1.17119 0.63624,-0.56417 2.7192,-2.47325 4.62879,-4.24242 1.90957,-1.76916 4.45838,-3.26719 5.66399,-3.32896 1.20562,-0.0618 3.49271,-1.55348 5.08243,-3.3149 1.58971,-1.76142 4.09662,-3.50877 5.57091,-3.883 1.54892,-0.39317 3.34176,-1.94319 4.24683,-3.67164 0.86145,-1.64516 2.37407,-3.0326 3.36136,-3.08319 0.98731,-0.0506 3.03384,-1.38343 4.54787,-2.96189 1.51403,-1.57845 3.09502,-2.78593 3.51332,-2.68329 0.4183,0.10264 0.73419,-0.37527 0.70198,-1.06202 -0.0322,-0.68675 2.07507,-3.52949 4.68288,-6.31721 2.6078,-2.78771 4.71397,-5.60487 4.68039,-6.26035 -0.0336,-0.65548 0.99067,-2.06925 2.27613,-3.14171 1.28545,-1.07247 2.10365,-2.47628 1.81822,-3.11959 -0.28543,-0.64331 0.34155,-2.19372 1.3933,-3.44537 7.16679,-8.52892 -5.04949,-16.76686 -13.99818,-9.43956 -0.53894,0.44129 -3.99814,1.96741 -7.68712,3.39138 -4.89929,1.89117 -6.96732,3.2472 -7.67211,5.03072 -0.5645,1.42852 -2.11777,2.73434 -3.74328,3.14696 -1.52813,0.38789 -2.74675,1.32321 -2.70806,2.07847 0.0387,0.75526 -0.49081,1.41354 -1.17668,1.46285 -0.68588,0.0494 -2.91862,2.64225 -4.96166,5.76209 -2.04303,3.11983 -4.45151,6.68002 -5.35217,7.91152 -0.90067,1.2315 -1.60938,2.7894 -1.57491,3.46202 0.0345,0.67263 -0.58279,1.81695 -1.37168,2.54296 -0.78888,0.72601 -1.3911,2.16381 -1.33826,3.19511 0.0528,1.0313 -0.57804,1.90964 -1.40196,1.95185 -0.82392,0.0422 -1.46219,0.77621 -1.41839,1.63109 0.0438,0.85488 -1.15637,2.83138 -2.66705,4.39223 -2.90971,3.00632 -11.2809,16.52472 -11.20081,18.08787 0.0567,1.10609 7.06769,-0.40679 8.36856,-1.80581 z m -197.82109,7.58387 c 7.56215,-0.82256 12.00714,-1.80212 14.35692,-3.16387 1.87194,-1.08484 5.79968,-2.33954 8.72831,-2.78823 2.92862,-0.44869 6.82733,-1.80935 8.66378,-3.02369 1.83646,-1.21434 4.21214,-2.25263 5.2793,-2.3073 1.06716,-0.0547 1.91727,-0.54883 1.88913,-1.09811 -0.0281,-0.54928 0.60927,-1.03253 1.41648,-1.07389 0.80721,-0.0414 3.02189,-1.05601 4.92149,-2.25479 1.89961,-1.19877 4.31246,-2.22358 5.36189,-2.27735 1.04944,-0.0538 2.16279,-0.5614 2.47412,-1.12808 0.31133,-0.56667 1.28358,-1.06708 2.16056,-1.11201 0.87697,-0.0449 2.93089,-1.21181 4.56427,-2.59306 1.63337,-1.38126 3.91528,-2.86437 5.0709,-3.29581 2.47979,-0.9258 5.54838,-4.00803 9.32429,-9.36576 1.50416,-2.1343 3.24981,-3.90693 3.8792,-3.93917 1.91747,-0.0983 4.95257,-4.53188 6.03821,-8.82054 0.56497,-2.23183 1.6452,-4.60429 2.40051,-5.27213 6.52425,-5.76869 -4.97458,-19.61488 -12.678,-15.26606 -1.64926,0.93106 -5.10702,1.80088 -7.6839,1.93291 -3.32182,0.1702 -5.15298,0.81334 -6.29263,2.21011 -0.88407,1.08354 -2.96338,2.31426 -4.62069,2.73494 -1.65733,0.4207 -4.29357,1.95926 -5.85833,3.41903 -1.56478,1.45978 -3.84957,2.70561 -5.07733,2.76852 -1.32229,0.0677 -3.0727,1.38201 -4.29387,3.22394 -1.13387,1.71026 -2.90949,3.15301 -3.94583,3.20611 -1.03635,0.0531 -2.01365,0.50248 -2.17181,0.99861 -0.15815,0.49614 -3.97516,3.68145 -8.48224,7.07846 -4.50708,3.39702 -10.23763,8.4516 -12.73457,11.23243 -2.75721,3.07069 -5.11925,4.8671 -6.01535,4.57489 -0.81901,-0.26706 -1.71241,0.24548 -2.00802,1.15202 -0.2929,0.89822 -1.1283,1.66366 -1.85643,1.70097 -0.72814,0.0373 -1.56311,0.98127 -1.8555,2.09769 -0.29238,1.11643 -1.09687,2.05883 -1.78778,2.09423 -1.42337,0.0729 -11.05538,7.86753 -15.75396,12.74873 -1.71418,1.78081 -3.55339,3.2602 -4.08713,3.28755 -0.53375,0.0273 -0.926,0.91728 -0.87167,1.97764 0.10825,2.11268 2.68566,2.79227 7.61269,2.00725 1.63879,-0.2611 7.90863,-1.01088 13.93299,-1.66618 z m -369.18384,100.9507 c -0.40373,-0.36438 -2.64014,-0.44695 -4.96978,-0.18349 -6.31107,0.7137 -41.74954,-5.18802 -45.62887,-7.59879 -0.56883,-0.35349 -2.17544,-0.93014 -3.570247,-1.28143 -5.49105,-1.38295 -26.16534,-14.56379 -28.57197,-18.21599 -0.53599,-0.81338 -2.88077,-3.50636 -5.210621,-5.9844 -2.329854,-2.47803 -5.07057,-5.40211 -6.09048,-6.49795 -1.019911,-1.09585 -1.8854,-2.5978 -1.923309,-3.33766 -0.03791,-0.73987 -0.52946,-1.32163 -1.092334,-1.29279 -0.562875,0.0288 -1.512432,-0.93634 -2.110128,-2.14484 -0.597696,-1.2085 -1.519662,-2.85097 -2.048812,-3.64994 -1.130273,-1.70661 -2.77885,-5.17166 -4.418072,-9.28609 -1.698331,-4.26279 -3.900157,-27.33624 -2.614896,-27.4021 0.564733,-0.0289 0.967574,-1.2887 0.895201,-2.79947 -0.0724,-1.51078 0.835843,-5.03663 2.018257,-7.83522 1.538617,-3.64167 1.859424,-5.57002 1.12836,-6.78249 -0.790842,-1.31161 -0.470338,-2.09702 1.419462,-3.47848 2.367676,-1.73078 7.998709,-10.09463 7.913673,-11.75428 -0.02315,-0.45179 1.884746,-2.78919 4.239765,-5.19422 2.355019,-2.40503 4.261344,-4.77299 4.236284,-5.26213 -0.0251,-0.48914 1.35528,-2.13002 3.06743,-3.64641 1.71215,-1.51638 3.7904,-3.46528 4.61833,-4.33088 0.82793,-0.86561 1.83467,-1.5907 2.2372,-1.61133 0.40253,-0.0206 2.14733,-1.2365 3.87732,-2.70194 1.73,-1.46545 3.55669,-2.68552 4.05932,-2.71127 0.50262,-0.0257 1.42913,-0.97441 2.0589,-2.10812 0.62978,-1.13371 2.08153,-2.10927 3.22611,-2.16792 1.14459,-0.0586 3.16327,-1.05141 4.48596,-2.20616 1.3227,-1.15473 4.03103,-2.44826 6.018527,-2.8745 1.9875,-0.42624 5.36929,-1.68654 7.51509,-2.80067 2.1458,-1.11412 6.34636,-2.45651 9.33458,-2.98308 2.98822,-0.52656 6.05103,-1.52332 6.80623,-2.21501 0.75521,-0.69169 3.20802,-1.40807 5.45069,-1.59194 2.24266,-0.1839 7.42972,-0.86678 11.52678,-1.51755 9.06182,-1.43937 44.55878,-3.12252 46.84225,-2.22111 0.90241,0.35623 2.32043,0.72159 3.15114,0.8119 12.43246,1.35162 18.70127,2.3045 21.69718,3.29805 1.68073,0.5574 4.51677,0.94483 6.30232,0.86097 1.78556,-0.0835 3.26717,0.252 3.2925,0.74635 0.0253,0.49435 0.71004,0.8648 1.52158,0.82322 0.81153,-0.0416 4.1269,1.18797 7.36747,2.73233 3.24057,1.54438 6.95939,2.94554 8.26405,3.11371 3.10334,0.40001 9.14617,3.83286 13.96758,7.93479 4.30277,3.66067 6.50717,16.11797 2.62836,14.85315 -1.1413,-0.37217 -1.37889,-0.0754 -0.86572,1.08117 3.8545,8.68721 -9.3505,8.22896 -20.7801,-0.72112 -1.68588,-1.32015 -4.11745,-2.60778 -5.4035,-2.8614 -1.28605,-0.25363 -2.35712,-0.82918 -2.38017,-1.27903 -0.0375,-0.73277 -10.33254,-5.44263 -11.73916,-5.37055 -0.31465,0.0161 -2.52234,-0.75458 -4.906,-1.71267 -2.38365,-0.95809 -5.61523,-1.89537 -7.1813,-2.08286 -1.56605,-0.18748 -4.2966,-0.71457 -6.06788,-1.1713 -1.77127,-0.45673 -8.65189,-1.30481 -15.29026,-1.88463 -6.63837,-0.57981 -12.53548,-1.34956 -13.1047,-1.71053 -1.09028,-0.69142 -29.02715,1.72369 -40.87274,3.5334 -3.8251,0.58438 -8.39737,1.99034 -10.16059,3.12436 -1.76323,1.13401 -4.70502,2.13866 -6.53734,2.23254 -2.04003,0.10452 -3.52456,0.76282 -3.82958,1.69818 -0.31042,0.95196 -1.80469,1.59444 -3.96591,1.70517 -1.9073,0.0977 -3.740387,0.67381 -4.073537,1.2802 -0.33315,0.60639 -1.34229,1.44662 -2.24254,1.8672 -9.24425,4.31868 -28.53811,23.27034 -29.35784,28.83715 -0.24961,1.69507 -1.052046,3.34738 -1.783199,3.67179 -0.731153,0.32441 -1.277086,1.61025 -1.213184,2.85743 0.0639,1.24718 -0.529265,2.8616 -1.318148,3.58761 -0.788884,0.726 -1.3911,2.1638 -1.33826,3.1951 0.05284,1.03131 -0.379858,1.89949 -0.961554,1.92929 -0.581696,0.0298 -0.743677,0.50843 -0.359956,1.06361 0.383721,0.5552 0.242602,1.61869 -0.313596,2.36335 -0.556199,0.74464 -0.993098,3.71103 -0.970888,6.59197 0.02221,2.88094 -0.312044,5.48166 -0.74279,5.77937 -0.790525,0.54638 -0.336695,3.32153 2.166985,13.25103 1.584743,6.28502 2.177634,7.46149 7.37876,14.64161 6.35154,8.76825 9.91515,12.39413 15.40924,15.67853 2.87401,1.7181 7.55359,4.61908 10.39908,6.44663 2.84548,1.82755 5.76891,3.29232 6.496497,3.25504 0.72759,-0.0373 1.9513,0.49938 2.71937,1.19257 1.28871,1.16309 11.44315,4.42404 19.8797,6.38407 6.11663,1.42106 47.38078,-1.61708 50.03142,-3.68363 1.21305,-0.94575 3.39875,-1.78067 4.85711,-1.8554 1.45837,-0.0747 3.1765,-0.83864 3.81808,-1.69759 0.73761,-0.98754 2.91251,-1.6512 5.91538,-1.80506 2.97327,-0.15234 5.17901,-0.81917 5.89925,-1.78345 1.31366,-1.75874 6.49646,-4.85954 8.27474,-4.95066 1.64966,-0.0845 7.33706,-3.37204 7.29381,-4.21608 -0.0194,-0.37948 1.65858,-1.52925 3.72895,-2.55504 2.54101,-1.259 4.25416,-3.0505 5.27172,-5.51288 1.12887,-2.73171 2.12766,-3.67957 3.97715,-3.77434 2.83618,-0.14531 10.01932,-4.89555 10.73866,-7.1015 0.26615,-0.81621 1.10994,-1.51608 1.8751,-1.55529 0.81814,-0.0419 1.33849,-1.09971 1.26326,-2.568 -0.0704,-1.3732 0.32148,-2.51975 0.87076,-2.5479 0.54928,-0.0281 0.96415,-0.72528 0.92194,-1.5492 -0.0422,-0.82392 0.61146,-1.5333 1.45262,-1.5764 0.84116,-0.0431 1.75352,-0.76573 2.02747,-1.60585 0.27396,-0.84012 1.05692,-1.55612 1.73991,-1.59111 0.68301,-0.035 2.21831,-1.48271 3.4118,-3.21712 1.19349,-1.73442 2.69222,-2.98321 3.33049,-2.77507 2.33592,0.76171 10.61426,-9.07628 16.31597,-19.3899 0.83626,-1.51268 2.86173,-3.20416 4.50103,-3.75884 2.24197,-0.7586 3.1845,-1.87058 3.80361,-4.48742 0.5022,-2.12271 3.31755,-6.21857 7.22184,-10.50654 3.51933,-3.8652 6.35487,-7.88465 6.3012,-8.93213 -0.0537,-1.04747 1.43954,-3.53606 3.31824,-5.5302 1.87871,-1.99413 3.79495,-4.54631 4.25831,-5.67149 1.79007,-4.34684 3.45871,-7.15242 5.19231,-8.73016 2.81924,-2.56579 8.37158,-10.75028 9.00586,-13.2752 0.31533,-1.25528 1.21716,-2.31531 2.00407,-2.35563 0.7869,-0.0403 1.40029,-0.66737 1.36309,-1.39344 -0.0372,-0.72606 1.17764,-3.15391 2.69964,-5.39521 1.52201,-2.24129 2.73949,-4.86219 2.70552,-5.82421 -0.0379,-1.07353 0.70973,-1.78866 1.93562,-1.85147 5.35994,-0.27463 0.84719,-2.9851 -5.68208,-3.41279 -6.79003,-0.44478 -23.9708,-3.52664 -27.2862,-4.89456 -2.36052,-0.97394 -13.95417,-3.34462 -17.81125,-3.64206 -1.43841,-0.11094 -4.41936,-1.12796 -6.62433,-2.26007 -2.20496,-1.1321 -7.46844,-3.61945 -11.69661,-5.52743 -10.03304,-4.52746 -20.75876,-14.29675 -21.00658,-19.1334 -0.0442,-0.86226 -0.74034,-1.53394 -1.54702,-1.49261 -0.80667,0.0413 -1.27007,-0.52779 -1.02978,-1.26471 0.24031,-0.73693 -0.3183,-2.62332 -1.24135,-4.19197 -1.04995,-1.78431 -1.81834,-5.54069 -2.05239,-10.03336 -0.21622,-4.14181 -0.85411,-7.44496 -1.50822,-7.80432 -0.64488,-0.35431 -0.94963,-1.87598 -0.70643,-3.5275 0.23523,-1.59743 0.0518,-2.88515 -0.40755,-2.86161 -1.66694,0.0854 -0.11168,-4.83258 1.71096,-5.41034 1.14879,-0.36415 1.82777,-1.47317 1.75628,-2.86859 -0.16686,-3.25655 3.35521,-11.09556 5.02365,-11.18105 0.77491,-0.0397 1.3752,-0.7308 1.33395,-1.53579 -0.0412,-0.80498 1.24496,-2.95995 2.85823,-4.78883 1.61328,-1.82887 3.31203,-4.62183 3.77501,-6.20657 0.46296,-1.58472 1.24063,-2.80228 1.72814,-2.70567 0.90335,0.17903 7.57365,-7.51922 7.51456,-8.6726 -0.0179,-0.34837 1.71342,-1.73581 3.84727,-3.08324 2.13384,-1.34742 3.84912,-3.04714 3.81171,-3.77715 -0.0743,-1.45023 2.00112,-2.64887 4.83816,-2.79423 0.99486,-0.051 2.03299,-0.78005 2.30695,-1.62017 0.27395,-0.84012 1.63571,-1.58578 3.02616,-1.65702 1.39044,-0.0712 2.5071,-0.53875 2.48147,-1.03889 -0.0755,-1.47462 9.80219,-6.5969 13.1155,-6.80128 3.17503,-0.19583 6.44555,-2.2778 6.35498,-4.04543 -0.0617,-1.20403 4.87978,-2.57575 9.9399,-2.75927 2.36409,-0.0858 4.14946,-0.84428 5.29676,-2.25044 0.9804,-1.20159 2.98484,-2.18537 4.62373,-2.26934 2.89212,-0.14819 20.99161,-4.35507 27.50209,-6.39236 1.89711,-0.59364 6.80504,-1.54139 10.90652,-2.1061 4.10147,-0.56472 8.78515,-1.49212 10.40818,-2.06088 3.09306,-1.08392 30.90706,-4.73938 37.79534,-4.96725 5.73556,-0.18975 24.29591,0.68784 36.82139,1.74102 7.52876,0.63304 11.51544,0.56414 13.32076,-0.23022 1.41702,-0.62351 3.61899,-1.18706 4.89326,-1.25235 1.36927,-0.0702 2.93361,-1.17414 3.82484,-2.69925 0.8294,-1.4193 2.35249,-2.62382 3.38466,-2.6767 1.18728,-0.0608 2.20393,-1.21639 2.76758,-3.14574 0.65221,-2.23249 1.52561,-3.08211 3.25973,-3.17096 1.30284,-0.0667 3.80984,-1.54697 5.57111,-3.28938 1.76126,-1.74241 3.5819,-3.18746 4.04584,-3.21123 0.46394,-0.0238 1.21313,-1.18864 1.66486,-2.58859 0.45173,-1.39995 1.45154,-2.57765 2.22179,-2.61711 0.77026,-0.0395 1.9254,-0.77454 2.56698,-1.6335 0.64158,-0.85895 2.20052,-1.61471 3.46432,-1.67947 1.2638,-0.0648 3.57807,-1.3121 5.14285,-2.77187 1.56476,-1.45977 4.233,-3.00645 5.92942,-3.43707 1.69642,-0.43062 3.30622,-1.1867 3.57734,-1.68018 0.27112,-0.49348 1.56762,-0.9523 2.8811,-1.0196 1.31349,-0.0673 2.7163,-0.75076 3.11735,-1.5188 3.73273,-7.1484 34.48048,-6.61563 44.98017,0.77937 9.11067,6.41671 16.88563,34.16935 10.80315,38.56172 -0.58553,0.42283 -1.72146,3.17247 -2.52428,6.11032 -0.80283,2.93785 -3.19724,8.06929 -5.32093,11.4032 -9.25293,14.52587 -18.84474,28.08328 -19.92211,28.15864 -0.64235,0.0449 -1.40006,1.47582 -1.6838,3.17973 -0.28374,1.70391 -1.23909,3.4189 -2.12297,3.81108 -1.8035,0.8002 -4.639,3.41992 -9.16214,8.46489 -1.68199,1.87603 -3.52505,3.43488 -4.09571,3.46412 -0.57066,0.0292 -1.80481,1.19183 -2.74254,2.58354 -0.93774,1.39171 -2.74696,2.84939 -4.02048,3.23929 -1.27353,0.3899 -2.0772,1.0537 -1.78594,1.47512 0.77879,1.12678 -4.09722,5.60228 -8.99709,8.2581 -0.80376,0.43565 -1.67047,1.10847 -1.92601,1.49516 -0.25555,0.38668 -3.50096,3.0024 -7.21201,5.81273 -3.71106,2.81032 -7.03926,5.67937 -7.396,6.37567 -0.35674,0.6963 -3.5125,2.86291 -7.01282,4.81468 -3.50031,1.95177 -6.34261,3.96994 -6.31623,4.48479 0.0264,0.51487 -0.80278,0.9797 -1.84257,1.03298 -1.0398,0.0533 -2.10687,0.76027 -2.37126,1.57111 -0.26441,0.81084 -1.92557,2.30876 -3.6915,3.32873 -1.76592,1.01998 -3.53873,2.48614 -3.93958,3.25815 -0.40085,0.77201 -1.29619,1.43272 -1.98964,1.46825 -0.69346,0.0355 -3.07513,1.05874 -5.29259,2.2738 -2.21747,1.21506 -4.50288,2.23334 -5.07869,2.26285 -0.57581,0.0295 -1.03251,0.39084 -1.01487,0.80298 0.0445,1.04453 -5.5972,4.54236 -7.48248,4.63896 -0.85374,0.0437 -2.53593,1.25641 -3.73821,2.69481 -1.20228,1.43841 -3.25604,2.67011 -4.56392,2.73712 -1.30788,0.067 -2.67667,0.4528 -3.04174,0.8573 -0.79854,0.88479 -11.3519,4.85115 -13.21735,4.96759 -0.72542,0.0452 -1.95852,0.79098 -2.74022,1.65712 -0.78171,0.86613 -2.73741,1.64222 -4.34602,1.72464 -1.6086,0.0824 -2.90439,0.54686 -2.87953,1.03207 0.0249,0.48521 -0.86693,1.17134 -1.98174,1.52473 -1.11482,0.35339 -2.45332,1.9748 -2.97444,3.60313 -0.52111,1.62832 -1.86585,3.4224 -2.9883,3.9868 -1.12246,0.56442 -2.52043,2.17725 -3.10663,3.58409 -0.58619,1.40684 -2.57606,4.38162 -4.42195,6.61063 -1.84589,2.229 -3.3398,4.372 -3.31981,4.76223 0.0372,0.726 -6.9938,10.74372 -12.7852,18.21627 -1.77788,2.29398 -4.36005,5.72325 -5.73814,7.6206 -4.81057,6.62318 -7.42325,9.5754 -8.52403,9.6318 -0.60989,0.0312 -0.81568,0.71768 -0.4573,1.5254 0.39323,0.88625 0.0817,1.49778 -0.78595,1.54224 -0.79065,0.0405 -2.43826,1.8032 -3.66135,3.91709 -1.22308,2.11389 -3.31828,4.46755 -4.656,5.23035 -1.33772,0.76282 -2.08446,1.37576 -1.65942,1.3621 1.68762,-0.0542 -2.40564,5.2059 -4.56568,5.86722 -1.26957,0.38869 -2.53578,1.57522 -2.81378,2.63675 -0.27801,1.06152 -1.45952,2.50094 -2.62559,3.1987 -1.94843,1.16593 -7.32691,6.39499 -10.84584,10.54452 -4.77377,5.62927 -5.93963,6.86904 -8.27401,8.79855 -1.42063,1.17423 -4.06658,3.69757 -5.8799,5.60743 -1.81332,1.90985 -3.75322,3.22178 -4.3109,2.91539 -0.55768,-0.30638 -0.97806,0.14357 -0.93419,0.9999 0.0439,0.85634 -0.71093,1.5975 -1.67737,1.64701 -0.96643,0.0495 -2.27242,1.01762 -2.9022,2.15133 -0.62977,1.13371 -2.04004,2.10715 -3.13395,2.1632 -1.10213,0.0565 -1.9547,0.76982 -1.91217,1.59994 0.0422,0.82392 -0.52142,1.52868 -1.25252,1.56614 -0.7311,0.0375 -1.88096,1.23935 -2.55525,2.67087 -0.6743,1.43153 -3.11967,3.55914 -5.43417,4.72803 -2.3145,1.1689 -4.18648,2.54875 -4.15996,3.06633 0.0265,0.51758 -1.48648,1.76805 -3.36222,2.77883 -1.87573,1.01078 -3.39371,2.16391 -3.37329,2.5625 0.0204,0.39861 -1.60645,1.62503 -3.61528,2.72541 -2.00882,1.10037 -6.06283,3.32448 -9.00889,4.94247 -2.94607,1.61799 -8.01211,4.99395 -11.25786,7.50214 -3.24575,2.50819 -6.63077,4.59772 -7.52225,4.64339 -0.89149,0.0457 -2.47365,1.02793 -3.51592,2.18277 -1.04227,1.15485 -2.80796,2.1465 -3.92376,2.20367 -1.1158,0.0572 -2.25287,0.79132 -2.52682,1.63143 -0.27396,0.84012 -1.54701,1.58124 -2.82903,1.64692 -1.28202,0.0657 -2.58566,0.58308 -2.89699,1.14975 -0.31133,0.56667 -1.23536,1.06461 -2.05339,1.10652 -0.81804,0.0419 -3.30164,1.07035 -5.51911,2.28541 -2.21746,1.21506 -4.62146,2.23941 -5.34221,2.27634 -0.72074,0.0369 -1.28958,0.47438 -1.26408,0.97212 0.0394,0.76984 -2.43706,1.44794 -11.8495,3.24454 -0.81808,0.15615 -3.48384,0.89352 -5.92391,1.6386 -12.5578,3.83452 -19.0009,5.39545 -26.46608,6.4118 -4.51717,0.61499 -8.72065,1.6806 -9.34106,2.36803 -1.29067,1.43006 -2.08226,1.59516 -3.12709,0.65217 z M 332.91633,593.31221 c 1.03399,-1.31654 2.71432,-3.69806 3.73408,-5.29228 1.01976,-1.59422 2.41396,-3.52532 3.09824,-4.29132 0.68425,-0.76601 0.952,-1.81538 0.59497,-2.33194 -0.35702,-0.51657 0.11077,-1.81853 1.03956,-2.89325 3.3408,-3.86575 5.90778,-7.55186 5.86332,-8.41956 -0.0249,-0.48633 0.61556,-1.17746 1.42328,-1.53585 0.80772,-0.35838 1.43332,-1.33982 1.39022,-2.18099 -0.0431,-0.84116 0.32165,-1.54987 0.81055,-1.57492 0.48891,-0.025 2.69937,-3.05287 4.91214,-6.7285 2.21277,-3.67562 4.58425,-6.72597 5.26996,-6.77854 0.68571,-0.0526 1.23412,-0.65819 1.21869,-1.3458 -0.0383,-1.70475 3.74567,-6.50156 5.80022,-7.35284 0.91936,-0.38092 2.51539,-2.57936 3.54673,-4.88541 1.03135,-2.30605 3.55715,-6.17234 5.6129,-8.59176 2.05575,-2.41942 3.72187,-4.70815 3.70251,-5.08607 -0.0194,-0.37794 0.77821,-0.99196 1.77239,-1.36449 0.99418,-0.37254 2.34772,-1.82402 3.00787,-3.22552 0.66015,-1.40151 1.7869,-2.57825 2.5039,-2.61499 0.717,-0.0367 1.98015,-1.56587 2.80701,-3.39808 1.97421,-4.37459 8.14222,-11.18129 10.22901,-11.28821 0.90578,-0.0464 1.86533,-0.75431 2.13233,-1.5731 0.26699,-0.81881 1.30619,-1.79628 2.30933,-2.17218 1.00314,-0.37589 2.03914,-1.45995 2.30224,-2.40902 0.26309,-0.94908 2.96216,-4.66904 5.99795,-8.2666 3.03579,-3.59755 5.27839,-6.52865 4.98356,-6.51354 -0.85079,0.0436 10.19595,-11.86978 12.73691,-13.73612 7.49319,-5.50381 -40.89286,-4.22001 -55.39257,1.46969 -2.3133,0.90774 -5.57062,1.72036 -7.2385,1.80582 -1.66788,0.0855 -3.67208,0.86403 -4.45379,1.73017 -0.7817,0.86613 -2.93559,1.65238 -4.78641,1.74721 -1.85083,0.0948 -3.58695,0.57615 -3.85804,1.06959 -0.2711,0.49344 -2.74275,1.23026 -5.49256,1.63738 -2.74981,0.40712 -5.77907,1.52174 -6.73167,2.47693 -0.95261,0.9552 -2.33535,1.76764 -3.07277,1.80542 -0.73742,0.0378 -2.01774,0.7398 -2.84516,1.56003 -0.82742,0.82023 -4.17596,2.1156 -7.44119,2.8786 -3.76144,0.87896 -6.50674,2.15245 -7.49226,3.47554 -0.85551,1.14855 -2.08668,2.11548 -2.7359,2.14875 -0.64924,0.0333 -2.27705,1.01785 -3.61735,2.18796 -1.3403,1.17012 -3.34507,2.17402 -4.45503,2.23089 -1.10995,0.0569 -3.35566,1.21064 -4.99048,2.56391 -4.5693,3.78245 -11.85977,8.30443 -12.48251,7.74241 -0.30677,-0.27688 -1.93269,1.39928 -3.61317,3.72477 -1.68046,2.32548 -3.54097,4.27213 -4.13444,4.32585 -0.59347,0.0537 -2.13062,1.55969 -3.41587,3.34658 -1.28525,1.78689 -3.61484,4.92865 -5.17688,6.9817 -1.56205,2.05305 -3.43209,5.11492 -4.15565,6.80416 -0.72356,1.68923 -1.85965,3.45955 -2.52464,3.93403 -0.66499,0.47448 -1.16593,1.7046 -1.11321,2.73362 0.0527,1.02901 -1.21697,3.32556 -2.82155,5.10345 -2.36213,2.61727 -2.77125,3.76601 -2.14952,6.03547 0.52593,1.91979 0.30255,3.23122 -0.70895,4.1621 -2.03669,1.87437 -1.4817,13.37121 0.725,15.01948 0.85895,0.64158 1.63605,2.61698 1.72688,4.3898 0.2445,4.77187 9.48902,15.06176 13.35371,14.86375 0.42124,-0.0216 1.52784,0.58244 2.45911,1.34228 1.79921,1.46801 15.36916,6.09446 15.32459,5.22468 -0.0145,-0.28258 1.2044,0.20542 2.70863,1.08443 1.85441,1.08367 4.94192,1.52618 9.58984,1.37443 3.77019,-0.12308 7.19994,0.0876 7.62167,0.46823 1.71885,1.55129 12.66681,-1.1486 14.59073,-3.59823 z m 89.19861,-24.76274 c 7.09277,-3.55534 8.50496,-4.38342 12.4392,-7.29411 2.19939,-1.62717 4.50157,-2.98425 5.11596,-3.01573 1.49768,-0.0767 4.71068,-2.24539 7.62555,-5.14695 1.31236,-1.30636 2.92897,-2.40302 3.59248,-2.43702 0.66351,-0.034 2.36112,-1.24745 3.77246,-2.69657 1.41135,-1.44911 2.91229,-2.65249 3.33541,-2.67417 0.42314,-0.0217 2.46624,-1.4656 4.54024,-3.20871 2.074,-1.74311 4.33203,-3.21058 5.01785,-3.26104 0.68581,-0.0505 1.22411,-0.53731 1.1962,-1.0819 -0.0279,-0.54458 2.34955,-2.51176 5.28323,-4.37153 2.93368,-1.85975 5.31257,-3.79901 5.28641,-4.30945 -0.0262,-0.51044 1.05409,-1.41281 2.40054,-2.00525 1.34645,-0.59245 2.42665,-1.49564 2.40044,-2.00709 -0.0262,-0.51145 0.81931,-0.75003 1.87893,-0.53017 1.2988,0.26949 2.09543,-0.24503 2.4448,-1.57901 0.28501,-1.08831 2.29117,-2.89015 4.45811,-4.00407 2.16694,-1.11391 4.32186,-2.83623 4.78871,-3.82734 0.46684,-0.99112 2.40429,-2.45633 4.30543,-3.25602 2.23496,-0.94009 3.33298,-2.00942 3.10679,-3.02561 -0.24902,-1.11885 10.77878,-14.56173 11.99686,-14.62414 0.7032,-0.036 11.32973,-12.04852 11.14479,-12.59834 -0.13663,-0.4062 0.59171,-1.58098 1.61854,-2.6106 1.02683,-1.02963 1.82716,-2.6488 1.77852,-3.59817 -0.0487,-0.94936 0.79833,-2.00721 1.88217,-2.35078 1.08384,-0.34357 1.92923,-1.45326 1.87863,-2.46599 -0.0509,-1.01271 1.17353,-3.48323 2.72029,-5.49001 1.54676,-2.00677 2.79595,-3.988 2.776,-4.40271 -0.0202,-0.41471 0.96791,-3.14057 2.19526,-6.05743 1.22736,-2.91686 2.19365,-6.0432 2.14732,-6.94741 -0.0463,-0.90421 0.23555,-1.99835 0.6264,-2.43142 0.63977,-0.70886 0.86741,-3.28109 0.80859,-9.13667 -0.11287,-11.23727 -11.57039,-17.22866 -22.50561,-11.76866 -7.62126,3.8053 -10.43943,5.85978 -12.21159,8.9024 -1.01239,1.73815 -2.25153,3.19868 -2.75364,3.24562 -2.33417,0.21823 -19.2252,19.5019 -20.29766,23.17288 -1.03188,3.53205 -1.60263,3.18584 11.10762,6.73787 11.71767,3.27464 17.77288,6.77537 17.47157,10.10092 -0.24699,2.72601 -4.77177,3.69322 -8.12113,1.73596 -1.28469,-0.75073 -4.58348,-1.94415 -7.33068,-2.65205 -2.74718,-0.7079 -7.9858,-2.23889 -11.64137,-3.4022 -8.32929,-2.65063 -17.01361,-0.40796 -16.7708,4.33094 0.0215,0.41963 -1.23351,2.30816 -2.78891,4.19675 -1.5554,1.88858 -2.80862,3.81199 -2.78494,4.27423 0.0495,0.96661 -6.07439,9.15213 -11.94842,15.97083 -2.20917,2.56445 -3.98381,5.30401 -3.94364,6.08791 0.0402,0.78389 -1.31193,2.97618 -3.00465,4.87174 -4.79969,5.37484 -12.63847,17.59174 -13.1131,20.43704 -0.23584,1.41378 -2.54998,5.15745 -5.14253,8.31926 -2.59255,3.1618 -4.69712,6.27106 -4.67684,6.90947 0.0203,0.6384 -1.14518,2.27518 -2.58993,3.6373 -1.44476,1.3621 -3.39669,4.46374 -4.33763,6.89253 -0.94094,2.42879 -2.68585,5.26722 -3.87757,6.30762 -5.13996,4.4873 -0.14855,7.56966 6.69934,4.13705 z M 0.20188982,470.61251 c -0.367617,-0.53189 -0.218984,-0.99009 0.330296,-1.01824 0.54927898,-0.0281 1.29946698,0.38401 1.66708398,0.9159 0.367617,0.53188 0.218984,0.99009 -0.330295,1.01823 -0.54928,0.0281 -1.29946798,-0.38401 -1.66708498,-0.91589 z M 1196.8569,367.98694 c -2.4045,-0.29444 -10.2263,-0.47251 -17.3818,-0.39573 -7.1554,0.0768 -17.5134,0.18654 -23.0176,0.24388 -5.5043,0.0573 -13.8429,0.006 -18.5302,-0.11478 -10.1896,-0.26187 -20.5222,-0.27757 -36.05,-0.0547 -10.0806,0.14465 -16.1218,0.15376 -40.7469,0.0614 -18.7201,-0.0702 -19.0691,-10.31368 -0.3638,-10.67579 10.9759,-0.21249 13.7954,-3.98779 11.3959,-15.25891 -0.459,-2.15657 -0.563,-5.94438 -0.2308,-8.41738 0.3321,-2.473 0.1,-7.4164 -0.5168,-10.98536 -1.4497,-8.39479 -3.28,-24.0102 -3.4287,-29.25343 -0.065,-2.25746 -0.6382,-5.29036 -1.276,-6.73969 -0.8648,-1.96538 -0.8393,-3.21246 0.1001,-4.90643 0.745,-1.3433 1.0242,-4.10015 0.6833,-6.74763 -0.317,-2.46201 -1.3083,-13.90127 -2.2028,-25.42059 -1.9471,-25.07439 -2.3402,-28.55307 -4.3877,-38.82634 -0.8693,-4.36124 -1.8149,-13.54989 -2.1014,-20.41923 -0.2869,-6.86931 -0.5723,-13.16295 -0.6345,-13.98585 -0.063,-0.82285 -0.9318,-13.16957 -1.9312,-27.43713 -2.8315,-40.42027 -3.5466,-47.73212 -4.874,-49.838327 -0.8449,-1.34081 -1.0317,-3.48616 -0.5896,-6.77768 0.4198,-3.12571 0.1664,-6.60415 -0.722,-9.91112 -0.7562,-2.8149 -0.9834,-5.24549 -0.5076,-5.43099 1.0812,-0.42148 -0.1655,-17.78538 -1.7651,-24.58727 -0.6575,-2.79549 -0.9463,-5.536 -0.642,-6.09001 0.9523,-1.73335 -0.2387,-8.867809 -2.115,-12.669374 -1.6526,-3.348563 -3.6538,-4.641612 -7.5852,-4.901194 -7.2138,-0.476305 -14.8853,-4.333116 -14.102,-7.089661 0.4443,-1.563985 16.0416,-2.242661 31.6917,-1.378984 6.3513,0.350505 16.7261,0.569534 23.0551,0.486732 6.3291,-0.0828 13.8098,0.14411 16.6237,0.504258 2.814,0.360141 6.6374,0.229984 8.4963,-0.289239 3.7395,-1.044435 26.7422,-1.027323 36.9738,0.0275 3.5987,0.371009 10.6602,0.626578 15.6922,0.567935 5.032,-0.05864 9.6529,0.170191 10.2688,0.508521 0.6158,0.338329 2.0029,0.08261 3.0823,-0.568266 1.0795,-0.650876 1.9811,-0.824756 2.0036,-0.3864 0.022,0.438355 1.0747,1.188826 2.3384,1.667712 2.5595,0.96995 5.1165,6.579679 5.5437,12.161824 0.149,1.951591 0.5093,8.943216 0.796,15.537176 0.2908,6.59376 0.9912,16.92145 1.5556,22.95047 0.5644,6.02902 1.0642,11.86109 1.1108,12.96014 0.3411,8.06462 2.1059,29.681137 3.7558,46.012197 1.6819,16.64971 0.3421,18.97539 -7.184,12.46919 -4.196,-3.62743 -4.8857,-4.69353 -4.3242,-6.68491 1.4665,-5.20211 -2.2283,-34.65143 -4.6537,-37.09239 -0.4947,-0.49784 -0.975,-2.275597 -1.0673,-3.950567 -0.1698,-3.07954 -3.7089,-15.36177 -5.9853,-20.77094 -0.6805,-1.61729 -1.7993,-4.82675 -2.4862,-7.13212 -0.6869,-2.30537 -1.6809,-4.16945 -2.209,-4.1424 -0.5281,0.0271 -0.9955,-0.63985 -1.0387,-1.48203 -0.068,-1.32342 -2.4731,-5.71391 -7.3909,-13.49062 -5.8196,-9.20301 -21.1944,-17.907151 -33.6191,-19.032792 -3.4348,-0.311173 -8.0947,-0.74713 -10.3554,-0.968782 -10.2891,-1.008837 -12.3045,3.696667 -10.572,24.683244 0.6338,7.67763 1.7115,21.62873 2.3948,31.00245 0.6832,9.37373 1.5949,18.338817 2.0257,19.922437 0.4308,1.58363 1.4433,11.76817 2.25,22.63233 0.8068,10.86414 1.7651,20.18453 2.1296,20.71196 0.3646,0.52743 0.1959,1.58423 -0.375,2.34845 -0.7288,0.97578 -0.6931,2.17283 0.1199,4.02043 0.6367,1.44702 1.3086,4.95947 1.4932,7.80546 0.5909,9.11303 3.7775,12.17353 10.2307,9.82544 4.5597,-1.65912 13.2851,-11.66391 13.8555,-15.88706 0.2386,-1.76708 1.1746,-5.0098 2.08,-7.20606 2.0164,-4.89165 2.4842,-17.03309 1.417,-36.77442 -0.7837,-14.494337 -0.7647,-14.729637 1.3844,-14.806967 5.8683,-0.21106 6.4171,1.38723 8.4519,24.614597 1.0304,11.76123 2.139,24.29927 2.4636,27.86233 0.3246,3.56306 1.3308,14.77626 2.2359,24.91823 0.9052,10.14197 1.8835,20.00483 2.1739,21.91748 0.5135,3.38206 1.5893,13.4327 3.7308,34.85475 2.017,20.17664 2.562,24.41546 3.3572,26.11242 0.4776,1.01921 0.3548,1.73412 -0.3036,1.76786 -0.6081,0.0311 -1.0735,0.68268 -1.0343,1.44783 0.1741,3.39898 -5.3675,2.61477 -8.7287,-1.23521 -1.7809,-2.03996 -2.3587,-5.23236 -4.3569,-24.07138 -1.267,-11.94574 -2.7335,-21.95561 -3.2586,-22.24416 -0.5253,-0.28854 -1.3633,-2.30503 -1.8626,-4.48107 -0.4992,-2.17605 -1.5188,-4.83292 -2.2657,-5.90418 -0.7469,-1.07124 -1.7367,-3.32955 -2.1993,-5.01846 -2.0848,-7.60977 -16.8986,-13.39547 -22.4147,-8.7543 -1.6617,1.39806 -1.6777,2.57853 -0.2333,17.25274 0.8527,8.66359 1.7086,19.12331 1.902,23.24382 0.1931,4.12051 0.8391,8.03008 1.4347,8.68796 0.7419,0.81945 0.7543,1.63619 0.04,2.59337 -0.5741,0.76848 -0.8096,1.60845 -0.5236,1.86658 0.5041,0.45498 4.5668,34.1039 4.6043,38.13501 0.1027,11.04118 1.8106,31.75701 3.2202,39.06019 1.2523,6.48763 1.4791,9.63441 0.791,10.9739 -2.4378,4.74574 0.015,19.64293 3.6905,22.41672 10.055,7.58765 42.0429,-4.0742 47.1364,-17.18449 0.4366,-1.12381 1.204,-2.85285 1.7054,-3.8423 0.5013,-0.98944 1.3217,-2.60855 1.823,-3.598 0.5014,-0.98945 1.3007,-2.84431 1.7764,-4.12193 0.4757,-1.2776 1.5156,-2.61163 2.3109,-2.9645 2.003,-0.88874 2.721,-4.00181 2.5429,-11.02656 -0.084,-3.30003 0.088,-6.68826 0.3811,-7.52937 0.2932,-0.8411 1.0394,-5.61053 1.6581,-10.59873 0.6187,-4.98819 1.3742,-9.7581 1.6789,-10.59979 0.3047,-0.8417 0.291,-8.09339 -0.03,-16.11486 -0.3219,-8.02146 -0.3345,-15.03946 -0.029,-15.59553 0.6748,-1.22812 -1.2232,-23.59944 -2.354,-27.744 -0.4445,-1.62939 -0.9764,-4.30568 -1.182,-5.94731 -0.2056,-1.64163 -0.8384,-5.30294 -1.4064,-8.13624 -1.1975,-5.97395 1.694,-8.22349 7.1537,-5.56551 5.4833,2.66939 6.345,6.05223 8.0878,31.75005 0.878,12.9472 1.9362,24.03181 2.3513,24.63248 0.9479,1.37138 2.1493,23.48611 1.3546,24.9327 -0.3226,0.58718 -0.072,1.92129 0.5573,2.9647 0.6643,1.1017 1.8683,12.27889 2.8717,26.65865 0.9503,13.61884 2.3408,28.10956 3.0901,32.20158 4.1359,22.58992 3.95,22.98629 -9.9803,21.28052 z m -209.67257,-1.1568 c -4.9982,-0.6132 -18.0175,-0.51319 -55.55095,0.4267 -19.85487,0.49719 -27.65886,0.52417 -41.04651,0.14188 -14.93923,-0.42657 -41.43941,-0.2504 -42.20771,0.28061 -3.26955,2.25977 -17.83093,-3.12568 -18.14506,-6.71087 -0.46426,-5.29837 1.94033,-6.22518 16.12795,-6.21627 15.32474,0.01 15.1546,0.21871 13.26004,-16.29429 -0.53364,-4.65116 -1.92155,-22.53221 -3.08424,-39.73566 -1.16268,-17.20345 -2.36643,-31.64427 -2.67498,-32.09069 -0.30855,-0.44642 -1.41837,-12.62479 -2.46626,-27.06305 -1.0479,-14.43826 -2.21622,-28.71369 -2.59626,-31.72318 -0.80364,-6.36364 -0.72629,-5.33087 -1.4566,-19.45095 -0.31258,-6.04192 -0.76759,-14.80512 -1.0109,-19.47379 -0.24322,-4.66867 -0.96395,-11.92072 -1.601,-16.1157 -0.86259,-5.68003 -0.85126,-8.0957 0.0444,-9.46221 0.66148,-1.00923 0.96052,-2.52209 0.66453,-3.36189 -0.29599,-0.8398 -1.15065,-8.25439 -1.89927,-16.47686 -0.74862,-8.22246 -1.89427,-17.85146 -2.54589,-21.39776 -0.65162,-3.546297 -1.64836,-14.728167 -2.21498,-24.848577 -0.56661,-10.12042 -1.33181,-19.20566 -1.70046,-20.18943 -0.36863,-0.98378 -0.20179,-1.81269 0.37077,-1.84202 0.59593,-0.0305 0.75853,-1.21619 0.38031,-2.7731 -0.36339,-1.49586 -0.35521,-4.8976 0.0182,-7.55943 0.5502,-3.92223 0.36932,-5.119073 -0.95417,-6.313547 -1.20731,-1.089621 -1.38556,-1.919421 -0.68372,-3.182862 2.50292,-4.505714 -0.71317,-6.81936 -9.7445,-7.010169 -9.17538,-0.193854 -14.21754,-3.497358 -14.36454,-9.411299 -0.0419,-1.685456 0.57995,-2.007313 3.95317,-2.046084 2.20158,-0.02531 7.82837,-0.134474 12.50396,-0.242598 4.67559,-0.108125 9.38237,0.197061 10.45951,0.678191 1.07713,0.481131 7.17444,0.761051 13.54958,0.622044 6.37513,-0.139006 15.64992,-0.185302 20.61064,-0.102878 4.96071,0.08242 13.07043,0.06463 18.02158,-0.03953 24.08342,-0.506686 34.02338,7.95394 11.56233,9.841539 -14.09116,1.184205 -15.69097,3.083841 -13.36192,15.866113 0.54681,3.00095 1.71735,17.66783 2.6012,32.59307 0.88386,14.92523 1.94605,27.442777 2.36044,27.816767 0.41439,0.374 0.1969,1.20366 -0.48331,1.84368 -0.95844,0.90183 -0.9345,4.18412 0.10638,14.5858 0.73872,7.38218 1.10801,14.79799 0.82064,16.4796 -0.28737,1.68162 0.23389,8.11674 1.15835,14.30026 0.92446,6.18353 1.36318,11.79343 0.97494,12.46645 -0.38824,0.67301 -0.33231,3.12362 0.12431,5.44579 0.46665,2.37325 0.41179,4.78769 -0.12526,5.51363 -0.65974,0.89176 -0.42872,2.6162 0.74635,5.57136 1.30524,3.28249 1.4782,4.90903 0.74221,6.97973 -0.52779,1.48493 -0.91182,4.04533 -0.85339,5.68979 0.18874,5.31363 1.92054,18.42345 2.55491,19.34129 0.33889,0.49031 -0.1086,1.34726 -0.99441,1.90435 -1.49434,0.93979 -1.47137,1.25015 0.31829,4.30081 2.01739,3.4389 2.14517,3.95401 3.77311,15.20917 1.02458,7.08383 4.16521,45.75657 4.45388,54.84394 0.0873,2.74914 0.29528,9.49734 0.46211,14.996 0.30156,9.93901 1.30371,18.02898 3.75934,30.34739 0.70637,3.5435 1.42063,8.92637 1.58724,11.96194 0.43441,7.91553 7.85357,14.8756 10.38873,9.74596 0.50153,-1.01479 1.59448,-1.47202 2.88075,-1.20513 2.99077,0.62055 16.33046,-3.04913 17.48452,-4.80991 0.5374,-0.81993 1.77545,-1.65006 2.75122,-1.84473 0.97577,-0.19467 2.26005,-1.27102 2.85396,-2.39187 3.55339,-6.70623 4.88141,-8.6321 5.99563,-8.69484 0.68644,-0.0382 1.19161,-1.17147 1.12265,-2.51738 -0.069,-1.3459 0.55503,-2.875 1.38664,-3.398 0.84324,-0.53032 1.58353,-2.67386 1.6737,-4.84624 0.0889,-2.14242 0.88459,-4.48298 1.76817,-5.20125 1.03857,-0.84426 1.34478,-2.00433 0.86619,-3.28152 -0.71355,-1.90422 0.27943,-4.86064 2.83042,-8.42705 0.66864,-0.9348 1.28548,-2.76877 1.37075,-4.07548 0.14734,-2.2576 0.55369,-3.83097 2.19219,-8.48811 1.4069,-3.99871 1.8326,-19.85792 0.5969,-22.23885 -0.8595,-1.65621 -0.8725,-3.01812 -0.048,-5.075 0.6195,-1.54623 0.9121,-5.87534 0.6502,-9.62027 -0.262,-3.74491 -0.1769,-10.73342 0.189,-15.53001 0.6093,-7.98859 0.1308,-37.28072 -1.0852,-66.4334 -0.4873,-11.68442 -0.4819,-11.71812 1.9867,-12.26152 10.0969,-2.22261 11.4189,-0.13584 12.7059,20.05612 1.9275,30.241 3.9089,54.31677 4.7114,57.24598 0.5602,2.04478 0.3571,3.33027 -0.6762,4.28132 -1.7274,1.58959 -1.6238,6.69771 0.2643,13.04045 0.7265,2.44102 1.5631,6.45348 1.8589,8.91657 1.384,11.52594 2.9079,26.52674 3.896,38.35088 1.7691,21.17062 5.2699,54.2379 5.95697,56.26889 0.2996,0.88539 -0.54657,2.03099 -2.11387,2.86192 -2.874,1.5237 -3.4359,1.55812 -10.7626,0.65927 z m -279.74427,10.26467 c -1.02346,-0.50582 -4.83481,-0.54475 -8.46968,-0.0865 -11.73977,1.47995 -30.81723,-6.89265 -39.08126,-17.15175 -1.69996,-2.11034 -3.72679,-4.17735 -4.50408,-4.59334 -0.77728,-0.41598 -2.19664,-2.51856 -3.15412,-4.67238 -0.95748,-2.15383 -2.72494,-4.31042 -3.92767,-4.79243 -1.53129,-0.61368 -2.23328,-1.78381 -2.3419,-3.90361 -0.10598,-2.06859 -1.52108,-4.51784 -4.46858,-7.73426 -2.90232,-3.16713 -4.17823,-5.35886 -3.90008,-6.69945 0.23416,-1.12849 -0.48502,-3.02153 -1.6586,-4.36579 -1.1396,-1.30536 -2.15006,-3.54773 -2.24545,-4.98306 -0.0954,-1.43533 -1.59403,-4.95254 -3.3303,-7.81604 -1.73628,-2.86348 -2.96374,-5.7986 -2.72769,-6.52247 0.23604,-0.72386 -0.59975,-3.19388 -1.85731,-5.48891 -1.25757,-2.29503 -2.33924,-5.20244 -2.40372,-6.46091 -0.0645,-1.25846 -1.4249,-5.60962 -3.02317,-9.66924 -1.59826,-4.05962 -3.52132,-10.81539 -4.27344,-15.01281 -0.75214,-4.19742 -1.88082,-7.91369 -2.5082,-8.25837 -0.8232,-0.45226 -0.82665,-0.84375 -0.0124,-1.40652 1.3424,-0.92782 -0.0784,-10.31204 -2.25615,-14.9022 -2.24498,-4.73168 -4.8118,-20.96484 -4.42267,-27.9699 0.21997,-3.96 -0.14463,-7.67636 -0.95916,-9.7766 -1.50953,-3.89229 -3.87358,-37.32865 -2.69676,-38.14201 0.42741,-0.29542 0.46599,-1.36742 0.0857,-2.38222 -0.38027,-1.01481 -0.32882,-2.66924 0.11434,-3.67652 0.44316,-1.00726 0.46922,-2.91335 0.0579,-4.23575 -0.45945,-1.47725 -0.10107,-3.89949 0.92943,-6.28185 0.92248,-2.13262 1.78452,-6.61011 1.91563,-9.95 0.13112,-3.33988 0.61201,-6.33074 1.06865,-6.64635 0.45664,-0.31561 0.64855,-4.12027 0.42646,-8.45479 -0.28281,-5.51968 -0.0155,-8.14077 0.89221,-8.7481 2.28785,-1.53078 3.20362,-4.70108 2.47914,-8.58258 -0.47472,-2.5434 -0.2148,-4.62213 0.79363,-6.34785 0.82472,-1.411307 1.44654,-4.268867 1.38179,-6.350127 -0.15017,-4.8286 1.76671,-10.97257 3.33677,-10.69482 0.79144,0.14001 0.94454,-0.48817 0.4443,-1.82311 -0.41976,-1.1202 -0.25951,-2.71105 0.35609,-3.53523 0.6156,-0.82419 0.84786,-2.11023 0.51614,-2.85788 -0.37571,-0.84677 0.0285,-1.34426 1.07201,-1.31932 1.16159,0.0278 1.72085,-0.88323 1.82417,-2.97153 0.082,-1.65636 0.88656,-4.864 1.78802,-7.12808 0.90145,-2.26408 2.53988,-7.19677 3.64095,-10.96155 1.34194,-4.58838 2.43902,-6.70257 3.32773,-6.41289 0.7608,0.24799 1.02085,-0.009 0.61022,-0.60316 -1.27138,-1.83949 6.09356,-12.231461 13.29277,-18.756188 3.85378,-3.492734 6.98682,-6.741879 6.96231,-7.220321 -0.0245,-0.478442 1.49742,-1.51851 3.38206,-2.311259 1.88466,-0.79275 3.63216,-2.226109 3.88335,-3.185242 2.89302,-11.0466421 50.01208,4.204496 58.64763,18.982613 0.82301,1.408447 3.30587,5.251801 5.51747,8.540787 2.21158,3.28898 4.36649,7.10822 4.78867,8.48719 0.42219,1.37897 1.43307,3.00426 2.24641,3.61177 1.65402,1.23543 2.78531,3.31111 8.70868,15.97856 4.44552,9.50697 4.66992,10.05757 8.59472,21.08784 1.44337,4.05645 3.33845,9.315897 4.21128,11.687677 0.87284,2.37176 2.03044,7.26894 2.57246,10.88262 0.54201,3.61367 1.39579,7.04134 1.8973,7.61704 0.5015,0.57569 0.69674,1.28504 0.43385,1.57633 -0.26289,0.29128 0.35841,2.24564 1.38067,4.34303 1.71947,3.52788 3.83701,14.38602 5.2382,26.86 0.31919,2.84151 0.88513,5.60736 1.25765,6.14634 1.15401,1.66969 5.14432,54.87321 4.23911,56.52086 -0.3181,0.579 -0.18288,7.6932 0.3005,15.80934 0.6637,11.14382 0.57081,14.96953 -0.37936,15.62625 -0.84417,0.58345 -0.98578,1.86409 -0.43031,3.89167 0.56735,2.07091 0.34941,3.84088 -0.69244,5.62374 -0.83619,1.43094 -1.19317,3.07508 -0.79329,3.65366 0.39989,0.57857 0.3265,1.61598 -0.1631,2.30533 -0.80015,1.12666 -1.57174,8.74411 -1.77957,17.56893 -0.11219,4.76377 -4.32103,20.10081 -7.40233,26.97424 -1.46782,3.27421 -2.58952,7.49965 -2.49267,9.38985 0.0969,1.8902 -0.22838,3.45744 -0.72273,3.48277 -0.49435,0.0253 -0.86397,0.72627 -0.82137,1.55764 0.0426,0.83137 -0.31021,2.31387 -0.78401,3.29444 -1.4635,3.02883 -3.38719,8.79442 -3.84572,11.52625 -0.24037,1.43204 -1.47078,3.84048 -2.73423,5.35209 -1.26347,1.5116 -2.53029,4.24493 -2.81518,6.07407 -0.65519,4.20681 -2.87006,8.1974 -4.15724,7.49023 -0.54178,-0.29766 -0.94778,0.18621 -0.90223,1.07525 0.13411,2.61746 -6.6204,10.85246 -9.00148,10.97446 -1.28576,0.0659 -2.5156,1.0975 -3.11419,2.61226 -1.37039,3.46788 -13.52568,7.13643 -17.3626,5.24016 z m -2.00559,-11.64445 c 10.01624,-1.41501 17.50774,-6.35788 17.25034,-11.38171 -0.0444,-0.86699 0.28368,-1.59502 0.72912,-1.61785 0.44543,-0.0228 1.28746,-2.43156 1.87115,-5.35276 0.5837,-2.92119 1.5046,-5.63121 2.04644,-6.02228 0.57289,-0.41347 0.69027,-3.77176 0.28049,-8.02487 -0.38758,-4.0226 -1.0514,-11.57668 -1.47516,-16.78682 -0.42377,-5.21015 -1.2198,-13.05469 -1.76896,-17.43232 -0.54917,-4.37764 -1.50458,-14.69226 -2.12314,-22.92139 -0.61856,-8.22913 -1.66056,-17.43883 -2.31554,-20.466 -0.65499,-3.02717 -0.95919,-6.6163 -0.67601,-7.97585 0.28318,-1.35955 -0.21173,-8.29236 -1.0998,-15.40624 -0.88806,-7.11388 -1.90336,-16.29896 -2.2562,-20.41129 -0.35284,-4.11233 -1.11655,-10.03509 -1.69714,-13.16169 -0.62969,-3.39106 -0.69154,-6.21594 -0.1533,-7.00133 1.22032,-1.78062 -2.11506,-50.25091 -4.80131,-69.77353 -0.50108,-3.64163 -0.53248,-6.8828 -0.0698,-7.20258 0.46269,-0.3198 0.54783,-4.30778 0.18921,-8.8622 -0.96811,-12.294457 -3.03749,-30.945497 -3.50921,-31.627997 -0.22682,-0.32819 -0.15606,-4.1342 0.15714,-8.45782 0.46006,-6.34964 0.27463,-8.26459 -0.96438,-9.95953 -0.84366,-1.15412 -1.92644,-4.99101 -2.40618,-8.52642 -1.29005,-9.507171 -5.67209,-18.424925 -9.90118,-20.149638 -9.01064,-3.674731 -11.84058,-4.23035 -19.20293,-3.770236 -5.37038,0.335623 -8.42641,1.020412 -10.13822,2.27175 -1.34775,0.985216 -3.14039,1.826651 -3.98364,1.869856 -0.84324,0.04321 -1.50296,0.668156 -1.46603,1.388779 0.0369,0.720622 -1.17875,2.333957 -2.7015,3.58519 -2.87141,2.359431 -4.17789,8.226889 -4.67879,21.012739 -0.25354,6.47147 0.88223,24.6617 1.60513,25.70763 0.30569,0.44228 0.0723,1.45098 -0.51781,2.24151 -0.70336,0.94167 -0.75015,3.60518 -0.13567,7.72325 1.64888,11.050327 1.85851,13.226947 1.37187,14.243917 -0.26201,0.54752 -0.17787,4.82381 0.18696,9.50288 0.36483,4.67907 0.34803,11.18044 -0.0373,14.4475 -0.48141,4.08145 -0.29444,7.36161 0.59751,10.48316 0.76686,2.68368 2.36853,22.31521 3.91339,47.96612 1.43838,23.88269 3.0208,47.00701 3.5165,51.38738 2.41765,21.36404 3.06424,27.71787 3.85958,37.92694 0.47326,6.07485 1.24208,11.59732 1.70848,12.27213 0.46641,0.67482 1.4199,8.25232 2.11887,16.83889 2.18915,26.89283 2.56223,30.36748 4.07982,37.99754 1.90438,9.57473 2.85368,12.77149 3.97563,13.38789 0.49902,0.27416 0.94769,1.28669 0.99705,2.25007 0.1411,2.75383 5.37077,6.54932 10.91984,7.9252 6.11674,1.51663 4.92256,1.5265 16.70468,-0.13797 z m -484.6086,23.76614 c -0.0281,-0.54928 -0.65564,-0.96772 -1.39442,-0.92986 -3.13031,0.16038 -4.94329,-3.46797 -5.92167,-11.85111 -1.77522,-15.21069 -2.43091,-29.77453 -1.34303,-29.83103 1.21625,-0.0632 0.30016,-11.45784 -1.66662,-20.73016 -0.72659,-3.42546 -1.07092,-6.68343 -0.76518,-7.23992 0.42027,-0.76497 -2.89681,-89.45869 -3.75422,-100.38226 -0.0862,-1.09703 -0.38734,-4.87922 -0.6694,-8.40487 -0.76539,-9.56716 4.05464,-12.50784 11.14345,-6.79857 3.33421,2.68535 3.33421,2.68535 4.36404,19.05165 2.48204,39.44542 6.26456,77.94799 7.88849,80.29757 0.37032,0.53579 1.35569,4.27227 2.1897,8.30327 0.83401,4.031 2.44939,9.04028 3.58973,11.13173 1.14034,2.09143 2.44519,5.404 2.89966,7.36126 0.45447,1.95725 1.43681,4.20325 2.18298,4.9911 0.74618,0.78785 2.03384,2.84916 2.86149,4.5807 1.51387,3.16719 15.61319,18.30862 17.09632,18.35995 0.43732,0.0151 3.40759,1.75807 6.60058,3.87321 10.426,6.90652 27.10706,7.61926 35.4909,1.51641 4.55466,-3.31547 12.36014,-11.78027 12.28132,-13.3187 -0.0247,-0.48284 0.8044,-1.88871 1.84255,-3.12416 1.03814,-1.23546 1.84892,-2.99975 1.80173,-3.92067 -0.0472,-0.92091 0.81249,-2.94516 1.91039,-4.49832 2.15121,-3.04328 1.37343,-16.68921 -0.98861,-17.34433 -1.56004,-0.4327 -1.42218,-3.11073 0.16435,-3.19202 1.0841,-0.0555 1.12932,-0.93098 0.22042,-4.26687 -0.62893,-2.30834 -1.47558,-5.5238 -1.88143,-7.14547 -0.40586,-1.62167 -1.67412,-4.43201 -2.81836,-6.2452 -1.14425,-1.8132 -1.85991,-3.97303 -1.59037,-4.79962 0.72693,-2.22926 -1.83038,-9.37392 -4.17278,-11.65796 -1.12392,-1.09593 -1.81822,-2.68342 -1.54288,-3.52775 0.30823,-0.94527 -0.48084,-2.10869 -2.05351,-3.02771 -1.40476,-0.82089 -2.92202,-2.47437 -3.37168,-3.67438 -0.44967,-1.20002 -1.65519,-2.83997 -2.67894,-3.64434 -2.35198,-1.84798 -3.8497,-5.86651 -2.21763,-5.95014 0.79182,-0.0406 0.60792,-0.84425 -0.55817,-2.43945 -0.95647,-1.30842 -1.77437,-3.06888 -1.81758,-3.91212 -0.0432,-0.84324 -0.50345,-1.5114 -1.02275,-1.48479 -0.5193,0.0266 -1.59939,-1.15628 -2.40018,-2.62866 -0.8008,-1.47237 -3.16426,-3.37697 -5.25215,-4.23247 -4.62522,-1.89515 -7.487,-5.52694 -6.86007,-8.70592 0.36966,-1.87442 -0.97409,-3.71724 -6.86763,-9.4182 -4.02998,-3.89829 -7.62838,-7.86091 -7.99646,-8.80582 -0.36807,-0.9449 -0.98058,-1.70205 -1.36115,-1.68255 -0.38055,0.0195 -1.98735,-1.0479 -3.57066,-2.372 -1.58331,-1.32409 -3.35532,-2.07805 -3.93781,-1.67546 -0.6885,0.47586 -0.88188,0.0554 -0.55269,-1.20156 0.56969,-2.17528 -4.59912,-8.02315 -6.45105,-7.29858 -0.60213,0.23559 -2.10875,-0.85158 -3.34803,-2.41593 -2.25324,-2.84427 -2.25324,-2.84427 0.022,-2.44329 2.02922,0.35761 1.92368,0.10931 -0.9761,-2.29622 -1.78825,-1.48346 -4.41272,-4.9997 -5.83213,-7.81387 -1.41942,-2.81416 -2.81459,-4.85758 -3.10037,-4.54092 -0.28579,0.31665 -1.52015,-1.12611 -2.743,-3.20615 -2.63628,-4.48416 -10.11109,-14.66981 -12.07005,-16.4474 -0.75914,-0.68884 -1.43025,-1.55563 -1.49137,-1.92621 -0.44047,-2.67042 -1.20859,-4.55103 -2.68221,-6.56691 -0.93622,-1.28072 -1.73204,-2.91076 -1.7685,-3.6223 -0.0897,-1.75035 -5.25926,-6.68818 -6.27041,-5.98931 -0.44396,0.30685 -1.09931,-0.10042 -1.45632,-0.90505 -0.40362,-0.90965 -0.0644,-1.49292 0.89693,-1.54217 1.59367,-0.0817 0.99917,-4.43124 -1.08281,-7.92215 -4.88159,-8.18514 -6.5026,-12.79729 -6.82023,-19.4052 -0.18536,-3.85612 -1.22328,-9.56434 -2.30648,-12.68493 -1.61013,-4.63859 -1.73683,-5.83461 -0.6944,-6.55509 1.1261,-0.77831 1.22904,-8.269367 0.19188,-13.963787 -0.58526,-3.21331 -0.20631,-11.11651 0.55836,-11.64502 0.4448,-0.30743 0.74839,-1.73641 0.67466,-3.17551 -0.16779,-3.27483 1.1986,-8.50561 3.781,-14.47442 1.09652,-2.53443 2.16965,-6.38121 2.38471,-8.54841 0.22346,-2.25175 1.51578,-5.32169 3.0156,-7.16369 3.55275,-4.363284 4.91743,-7.329969 4.76253,-10.353264 -0.0915,-1.785066 0.59433,-2.853657 2.3182,-3.612173 1.34645,-0.592448 2.42449,-1.537712 2.39565,-2.100587 -0.0288,-0.562874 0.60587,-1.057138 1.41046,-1.098363 0.8046,-0.04123 1.85211,-0.901266 2.32783,-1.911201 0.4757,-1.009935 2.10297,-2.538296 3.61612,-3.396358 1.51317,-0.858061 3.39892,-2.109967 4.19057,-2.782013 5.97261,-5.070273 27.90666,-5.963186 37.47103,-1.525408 9.37932,4.351914 19.08561,10.955752 19.19335,13.058521 0.11304,2.206294 10.94052,10.668901 11.69558,9.14111 0.41935,-0.848492 1.33996,-1.354394 2.0458,-1.124229 2.15828,0.703791 3.06874,-6.946669 2.39396,-20.116248 -0.87203,-17.01943906 9.94082,-22.5354471 14.60334,-7.4496701 0.88416,2.8607431 0.86052,2.3262421 1.10897,25.0694751 0.0992,9.081818 0.4726,20.102148 0.82976,24.489628 0.35716,4.38747 1.08307,14.03797 1.61317,21.44554 0.53009,7.40758 1.02823,14.36621 1.10697,15.46362 3.74345,52.166587 2.30658,61.257807 -8.2665,52.302857 -4.93254,-4.17766 -8.12462,-23.03473 -4.84833,-28.64127 0.78679,-1.34638 1.17998,-2.81045 0.87377,-3.25348 -0.74107,-1.07222 -4.17838,-24.569127 -4.28526,-29.293407 -0.0636,-2.81546 -0.60514,-3.96528 -2.22695,-4.7292 -1.77863,-0.83778 -2.10483,-1.71971 -1.91935,-5.18927 0.16185,-3.0277 -0.48738,-5.44547 -2.35515,-8.77078 -1.41822,-2.52495 -2.65798,-6.14028 -2.75501,-8.03406 -0.14708,-2.8705 -1.31296,-4.52347 -7.00925,-9.93759 -3.75805,-3.5719 -6.85389,-6.83123 -6.87964,-7.24295 -0.0261,-0.4117 -0.60944,-0.73686 -1.29711,-0.72252 -0.68767,0.0143 -2.49148,-1.58296 -4.00846,-3.549541 -1.51698,-1.966579 -4.10567,-4.122011 -5.75264,-4.78985 -1.64696,-0.667839 -3.68909,-1.579902 -4.53807,-2.026806 -0.84898,-0.446904 -2.23104,-1.037959 -3.07124,-1.313454 -0.8402,-0.275496 -3.32722,-1.149377 -5.52671,-1.941958 -13.37416,-4.819332 -32.55832,6.858469 -30.38608,18.496649 0.47472,2.54335 0.27083,4.18753 -0.62107,5.00834 -0.7303,0.67208 -1.06447,1.60297 -0.74261,2.06864 0.32185,0.46567 0.74272,3.6582 0.93527,7.09451 0.19259,3.43631 0.73954,6.6801 1.21554,7.20843 0.476,0.52832 1.2228,3.19523 1.65957,5.92646 1.29961,8.12676 1.70678,9.42514 3.57208,11.39047 0.97922,1.03174 1.81186,2.48983 1.85031,3.24022 0.0385,0.75038 0.77269,1.88926 1.63164,2.53084 0.85896,0.64157 1.59582,1.83171 1.63748,2.64474 0.21026,4.10378 7.55305,13.731697 11.71763,15.364247 1.45218,0.56926 2.08044,1.10031 1.39612,1.1801 -2.91447,0.33983 3.95609,8.6879 17.42892,21.17694 4.24499,3.93504 9.27967,8.98962 11.18818,11.2324 1.90849,2.24278 3.82323,4.05968 4.25496,4.03756 0.43174,-0.0221 0.81951,0.63389 0.86173,1.45781 0.0426,0.83224 0.96448,1.45255 2.07413,1.3957 1.09856,-0.0563 2.02368,0.41076 2.05581,1.0379 0.0321,0.62713 1.47267,2.35961 3.20119,3.84993 1.72853,1.49033 3.1656,3.1552 3.1935,3.6997 0.0279,0.5445 0.49449,0.96727 1.03689,0.93948 0.54239,-0.0278 2.17594,1.57822 3.63012,3.56892 1.45419,1.9907 4.35737,5.33402 6.45153,7.42961 2.09414,2.09558 5.71865,6.41578 8.05443,9.60043 2.33579,3.18465 4.6472,6.23359 5.13645,6.77544 0.48925,0.54185 1.26279,2.71871 1.71897,4.83747 0.45618,2.11875 1.34909,4.13778 1.98424,4.48674 0.63515,0.34895 1.07959,0.96051 0.98765,1.35901 -0.0919,0.39851 1.28513,2.75582 3.06017,5.23848 1.77503,2.48265 3.91942,6.28081 4.76532,8.44035 0.8459,2.15955 2.01364,4.50647 2.59499,5.21537 0.58135,0.70891 1.03233,2.82611 1.00217,4.70488 -0.0302,1.87878 0.36914,3.39424 0.88735,3.36769 0.5182,-0.0266 1.33201,1.84676 1.80844,4.16291 2.56655,12.47704 6.20342,29.58896 7.21104,33.92882 0.70316,3.02855 0.87413,6.90786 0.4403,9.99056 -0.39006,2.77174 -0.66607,9.33195 -0.61333,14.57823 0.0527,5.24627 -0.27273,10.68106 -0.72326,12.07728 -0.45052,1.39622 -0.59563,4.54377 -0.32246,6.99455 0.29247,2.62394 -0.0548,5.4493 -0.84473,6.87197 -0.80439,1.44876 -1.03651,3.41194 -0.5798,4.90368 0.51322,1.67634 0.22561,3.14465 -0.88184,4.50196 -0.9039,1.10783 -1.70775,3.23633 -1.78632,4.73 -0.21854,4.15418 -4.6804,18.20664 -6.53252,20.57388 -0.90453,1.1561 -1.60664,2.88344 -1.56026,3.83853 0.0459,0.95511 -1.18822,3.24171 -2.74358,5.08139 -1.55535,1.83966 -2.80343,3.82272 -2.7735,4.40679 0.0572,1.11598 -4.93039,7.30699 -5.92779,7.3581 -0.31861,0.0163 -1.98338,1.45057 -3.6995,3.18721 -1.71613,1.73665 -4.57114,3.72024 -6.34447,4.40798 -1.77334,0.68774 -3.2059,1.60846 -3.18348,2.04604 0.0224,0.43758 -1.86902,0.89754 -4.2032,1.02212 -2.33418,0.1246 -7.06657,0.9118 -10.51642,1.74936 -4.22216,1.02508 -7.15628,1.25158 -8.97631,0.69295 -1.48711,-0.45644 -4.75675,-1.32278 -7.26587,-1.92519 -2.50911,-0.60241 -6.78071,-2.23817 -9.49245,-3.63501 -2.71173,-1.39685 -5.36005,-2.5177 -5.88516,-2.49079 -0.5251,0.0269 -0.97733,-0.39194 -1.00493,-0.93075 -0.0276,-0.53881 -1.29927,-1.22599 -2.82591,-1.52706 -2.29821,-0.45323 -6.43939,-2.91398 -14.20651,-8.44174 -4.66243,-3.31819 -7.7153,-4.19962 -8.88034,-2.56397 -0.64863,0.91064 -1.80836,1.87816 -2.57718,2.15003 -1.62558,0.57485 -1.76943,1.99451 -1.54728,15.26987 0.13876,8.29212 -0.126,10.1039 -1.65856,11.34974 -2.10773,1.71339 -6.41118,2.19113 -6.48655,0.72009 z m 94.72014,-93.52131 c 0.29551,-0.90622 0.10755,-1.29852 -0.44064,-0.91963 -0.5258,0.3634 -0.93433,1.08363 -0.90785,1.60049 0.0736,1.43654 0.77322,1.08331 1.34849,-0.68086 z m 253.8583,73.57587 c -1.32123,-0.44594 -6.05964,-0.58663 -10.52979,-0.31265 -4.47016,0.274 -11.06782,0.27513 -14.66148,0.003 -3.59366,-0.27262 -8.68414,-0.0185 -11.31219,0.56469 -3.08844,0.68536 -5.24916,0.70861 -6.10983,0.0658 -0.73237,-0.54703 -5.33223,-0.85297 -10.22193,-0.67989 -14.30988,0.50654 -25.92019,-9.5939 -14.02682,-12.20269 5.87027,-1.28764 8.04355,-3.12231 7.28599,-6.15078 -0.36459,-1.45752 -1.35557,-5.54337 -2.20217,-9.07968 -0.8466,-3.53632 -2.70475,-8.29525 -4.12922,-10.57541 -1.42445,-2.28017 -2.37196,-4.5425 -2.10556,-5.02739 0.2664,-0.4849 -0.25035,-2.18309 -1.14835,-3.77377 -0.89799,-1.59067 -2.03137,-5.07941 -2.51863,-7.75274 -0.48726,-2.67333 -1.59346,-5.59609 -2.45822,-6.49503 -0.86477,-0.89895 -1.32896,-2.38069 -1.03155,-3.29277 0.29742,-0.91207 -0.17534,-3.04494 -1.05049,-4.73969 -0.87519,-1.69476 -2.02066,-5.47401 -2.54551,-8.39832 -0.56603,-3.15383 -1.76202,-6.04597 -2.93974,-7.10889 -1.09202,-0.98557 -1.70911,-1.80611 -1.37129,-1.82342 0.33781,-0.0173 -0.11986,-1.03571 -1.01714,-2.26312 -0.89724,-1.2274 -1.71347,-3.83455 -1.81385,-5.79366 -0.10038,-1.95911 -0.72419,-4.4604 -1.38624,-5.55841 -0.66205,-1.09801 -1.32579,-3.70947 -1.47496,-5.80324 -0.70891,-9.94991 -7.8164,-15.51266 -8.90533,-6.96986 -0.25443,1.99601 -0.87779,4.21121 -1.38524,4.92268 -0.50746,0.71147 -0.64094,2.18229 -0.29663,3.26847 0.34431,1.08619 0.29482,2.20379 -0.10997,2.48357 -0.75829,0.5241 0.14945,14.21443 1.98713,29.96921 0.57471,4.92705 1.69029,19.73937 2.47906,32.91627 1.58609,26.49626 2.17515,28.53878 8.50705,29.49758 12.41377,1.8797 9.57821,12.87283 -3.15563,12.23398 -2.76217,-0.13858 -7.73252,-0.38547 -11.04521,-0.54865 -3.31269,-0.16317 -8.81709,-0.1 -12.23202,0.14049 -3.41492,0.24046 -7.3177,0.0794 -8.67283,-0.35786 -1.49816,-0.48342 -6.23885,-0.24178 -12.09513,0.61672 -7.47441,1.09543 -10.24269,1.14612 -12.36147,0.22634 -1.55761,-0.67617 -3.78781,-0.84394 -5.19275,-0.39063 -1.35441,0.43702 -3.79967,0.49842 -5.4339,0.13646 -1.63424,-0.36196 -3.14756,-0.46285 -3.36295,-0.22421 -1.65124,1.82958 -8.96333,-4.08952 -9.41467,-7.62112 -0.49005,-3.83456 -0.49005,-3.83456 5.57942,-4.37121 9.48309,-0.83846 9.53416,-0.93596 9.04109,-17.25987 -0.89331,-29.57392 -1.20977,-45.09065 -0.96901,-47.51266 0.13756,-1.38385 -0.41401,-6.98797 -1.22571,-12.4536 -0.81171,-5.46562 -1.85169,-17.67577 -2.31107,-27.13366 -0.49291,-10.14785 -1.24708,-17.42242 -1.84004,-17.74819 -0.55264,-0.30362 -0.76533,-0.9879 -0.47266,-1.52063 0.92923,-1.69135 -0.18057,-27.32089 -1.30236,-30.07637 -0.79074,-1.94233 -0.69491,-3.56478 0.36156,-6.12129 1.00937,-2.44253 1.20281,-5.08018 0.64956,-8.85668 -2.06999,-14.12994 -3.21196,-29.94593 -2.25472,-31.2275 0.70805,-0.94797 0.58491,-3.72006 -0.41517,-9.34574 -1.79696,-10.10839 -2.79484,-23.3219 -1.88618,-24.97583 0.38225,-0.69577 0.23111,-4.73049 -0.33589,-8.96605 -0.567,-4.23555 -1.07101,-8.14954 -1.12002,-8.69775 -0.049,-0.54821 0.2196,-3.69906 0.59693,-7.0019 0.47578,-4.164537 0.3196,-6.711257 -0.50953,-8.308897 -0.87403,-1.68409 -0.90461,-2.82761 -0.11375,-4.25133 1.50199,-2.70384 -0.18399,-11.03522 -2.62414,-12.9674 -2.01412,-1.59483 -0.41115,-4.803 1.79441,-3.59128 0.53568,0.29431 0.49406,-4.40873 -0.0989,-11.17348 -0.56317,-6.42516 -1.31423,-15.27178 -1.66904,-19.65937 -0.87215,-10.784891 -1.30916,-11.448007 -7.34104,-11.13895 -6.44371,0.330158 -11.07486,-1.423542 -14.52965,-5.502009 -4.57952,-5.406268 -3.39246,-6.933441 5.04282,-6.487582 2.48498,0.131347 9.02131,0.185527 14.52519,0.120399 5.50388,-0.06513 16.09913,0.05948 23.54501,0.276902 7.44588,0.217423 21.63471,0.124425 31.53074,-0.206664 20.25363,-0.677621 25.62992,0.701628 27.1641,6.968738 1.15187,4.705396 -4.78219,7.964813 -10.3501,5.685034 -11.13586,-4.559566 -13.04664,-0.548868 -12.08265,25.361372 1.3108,35.23221 1.89361,45.998527 3.86489,71.395757 1.04311,13.43923 2.78994,39.17814 3.88184,57.19757 1.37096,22.62476 2.35195,33.09355 3.17027,33.8321 0.88011,0.79432 1.16467,0.67247 1.10595,-0.47349 -0.0435,-0.84865 0.78414,-2.40854 1.83917,-3.46643 1.14177,-1.14489 1.65689,-2.62085 1.27261,-3.64637 -0.38669,-1.03197 0.15345,-2.54767 1.34684,-3.77943 1.09585,-1.13108 2.01021,-3.12832 2.03191,-4.43831 0.0217,-1.30998 0.60148,-3.02131 1.28842,-3.80294 0.68694,-0.78163 0.9326,-2.26546 0.54591,-3.2974 -0.41403,-1.10489 0.10196,-3.34155 1.25506,-5.4404 1.39839,-2.5453 1.75525,-4.52164 1.2484,-6.91372 -0.51858,-2.44745 0.10889,-5.64512 2.32978,-11.87263 1.67173,-4.68767 2.96517,-9.97405 2.8743,-11.74752 -0.0909,-1.77346 0.25866,-3.51743 0.77673,-3.8755 0.51806,-0.35807 1.47373,-2.79923 2.1237,-5.4248 0.64997,-2.62557 1.82965,-6.15873 2.6215,-7.85146 0.79185,-1.69274 1.41371,-3.63961 1.38191,-4.32639 -0.0322,-0.68675 0.33982,-1.26905 0.82581,-1.29395 0.48599,-0.0249 1.06894,-2.64566 1.29544,-5.82391 0.2265,-3.17826 1.02604,-6.54226 1.77674,-7.47555 0.75071,-0.9333 1.25468,-2.0856 1.11993,-2.56067 -0.13475,-0.47506 0.0712,-1.78113 0.45773,-2.90238 2.01201,-5.83685 4.10954,-11.41753 4.88747,-13.00356 0.48115,-0.98094 0.82134,-2.82726 0.75598,-4.10293 -0.0654,-1.275657 0.49628,-3.225567 1.2481,-4.333107 0.75182,-1.10754 1.31791,-3.25033 1.25799,-4.76174 -0.0599,-1.51141 0.34045,-2.77105 0.88973,-2.79919 0.54928,-0.0282 0.9181,-1.62411 0.8196,-3.54659 -0.0985,-1.92248 0.27031,-3.51844 0.81959,-3.54658 0.54928,-0.0281 0.96116,-0.83778 0.9153,-1.7992 -0.0463,-0.96139 0.52694,-3.08051 1.27289,-4.70911 0.74596,-1.62859 1.26523,-3.45756 1.15393,-4.06437 -0.35276,-1.92334 0.94817,-7.67076 1.74553,-7.71161 0.69163,-0.0354 2.00939,-4.09782 2.14694,-6.61853 0.10745,-1.9693 2.31258,-9.15123 3.18664,-10.37867 0.48925,-0.68704 0.55026,-2.15459 0.13559,-3.26121 -0.54093,-1.44359 -0.31169,-2.03471 0.81139,-2.09225 1.06575,-0.0546 1.5174,-1.015664 1.41515,-3.01126 -0.23895,-4.663588 -2.10495,-7.967827 -4.43233,-7.848579 -9.65955,0.49493 -14.84942,-11.097851 -5.34277,-11.934315 5.29745,-0.466108 6.27161,-0.473423 15.26413,-0.114623 2.75925,0.110094 11.66343,0.147423 19.78706,0.08295 17.96227,-0.14255 21.50731,1.157659 21.43102,7.860205 -0.058,5.097558 -0.57753,5.478853 -6.52124,4.786456 -8.08197,-0.941488 -14.14562,-0.419763 -15.45222,1.329529 -0.64157,0.858955 -2.235,1.616483 -3.54093,1.683395 -1.30595,0.06691 -2.35142,0.571071 -2.32328,1.120351 0.0281,0.549279 -0.62294,1.033229 -1.44686,1.075445 -0.83996,0.04304 -1.45238,0.967962 -1.39409,2.105479 0.0572,1.115797 -0.55692,2.321947 -1.36464,2.680327 -0.80772,0.35839 -1.43558,1.29555 -1.39526,2.08258 0.0403,0.78704 -0.66006,3.14031 -1.55641,5.22951 -0.89635,2.08919 -1.41179,4.57589 -1.14541,5.52601 0.26638,0.95011 0.002,1.75219 -0.5876,1.7824 -0.58955,0.0302 -1.03839,0.84174 -0.99741,1.8034 0.0968,2.27139 -1.79782,8.7365 -3.09346,10.55595 -0.55606,0.78087 -1.20223,3.23192 -1.43593,5.44679 -0.2337,2.21486 -1.422,6.33105 -2.64065,9.1471 -1.21865,2.81605 -2.18868,5.92309 -2.15562,6.90453 0.0331,0.98144 -0.59699,2.90892 -1.40012,4.28329 -0.80313,1.37435 -1.17193,2.91597 -0.81955,3.42582 0.35239,0.50985 0.18581,1.10498 -0.37019,1.32252 -0.55599,0.21753 -1.17595,2.202777 -1.3777,4.411677 -0.20174,2.2089 -0.92548,5.46467 -1.6083,7.23505 -0.68284,1.77038 -1.19483,4.13003 -1.13777,5.24366 0.0571,1.11363 -0.46391,2.65375 -1.15771,3.42249 -1.22563,1.35801 -2.68801,6.13413 -2.67973,8.752 0.002,0.71135 -0.57809,1.69574 -1.28964,2.18754 -0.71156,0.49179 -1.35606,2.42096 -1.43221,4.28702 -0.14758,3.61588 -1.59619,12.4895 -2.45309,15.02653 -0.28391,0.84063 -0.44418,1.81945 -0.35613,2.17516 0.088,0.35571 -0.4716,1.22809 -1.24367,1.93862 -0.77207,0.71054 -1.36189,2.10915 -1.31071,3.10804 0.0512,0.99888 -0.32312,2.10379 -0.83178,2.45536 -0.50865,0.35156 -0.65764,1.24139 -0.33107,1.97739 0.32656,0.73602 0.12889,1.65948 -0.43924,2.05217 -0.56814,0.39267 -0.95376,2.26037 -0.85692,4.15043 0.1224,2.38885 -0.2806,3.45987 -1.32195,3.51323 -0.82392,0.0422 -1.45659,0.88569 -1.40593,1.8744 0.0507,0.9887 -0.37741,2.31787 -0.95127,2.9537 -1.91567,2.12258 0.51641,7.0979 7.46517,15.27154 3.76662,4.43057 6.87718,8.45285 6.91236,8.9384 0.0352,0.48554 1.77474,3.86926 3.86569,7.51939 2.09095,3.65012 3.73578,6.94527 3.65517,7.32256 -0.0806,0.37728 0.65132,2.01243 1.62649,3.63366 0.97516,1.62122 2.18616,4.71331 2.69112,6.8713 0.50496,2.15798 1.30437,4.36652 1.77649,4.90787 0.47212,0.54135 1.78538,4.30408 2.91836,8.36162 1.13299,4.05754 2.4365,7.80865 2.89667,8.33579 0.46019,0.52714 1.28654,3.51281 1.83633,6.63481 0.5498,3.12199 1.65018,6.16227 2.4453,6.75616 0.79511,0.5939 1.52207,2.5712 1.61547,4.394 0.0934,1.8228 0.63345,3.56892 1.20012,3.88025 0.56668,0.31133 1.07307,1.40047 1.12533,2.42032 0.0522,1.01984 1.803,5.29679 3.89054,9.50435 2.08755,4.20755 4.95442,11.19543 6.37082,15.52863 1.41641,4.3332 3.00535,8.75769 3.53097,9.8322 2.61158,5.33873 4.62193,11.48472 5.94892,18.18686 0.80607,4.07118 1.8419,7.62283 2.30182,7.89256 0.45992,0.26973 1.22572,3.174 1.70177,6.45393 0.47605,3.27994 1.75072,7.72053 2.83262,9.86798 1.08189,2.14746 2.12314,4.57235 2.31387,5.38866 0.55907,2.3927 5.68961,5.50365 9.05998,5.4936 8.74412,-0.0261 12.69831,1.24074 15.39729,4.9329 3.76805,5.15462 -11.22574,9.66488 -21.0765,6.33999 z M 251.69209,112.21516 c -0.0298,-0.58169 0.40945,-0.8029 0.97612,-0.49157 0.56668,0.31133 1.04047,0.76424 1.05288,1.00646 0.0124,0.24223 -0.42684,0.46343 -0.97612,0.49158 -0.54928,0.0281 -1.02308,-0.42477 -1.05288,-1.00647 z"
     id="path894"
     inkscape:connector-curvature="0" />
</svg>
